<?xml version="1.0" encoding="UTF-8" standalone="no"?>
<!DOCTYPE svg PUBLIC "-//W3C//DTD SVG 1.1//EN" "http://www.w3.org/Graphics/SVG/1.1/DTD/svg11.dtd">
<svg xmlns="http://www.w3.org/2000/svg" version="1.1" viewBox="0.00 0.00 512.00 512.00" width="512.00" height="512.00">
<path fill="#525252" d="
  M 254.57 0.00
  L 257.56 0.00
  Q 263.29 0.76 265.95 2.30
  C 319.92 33.47 382.39 49.07 444.39 51.51
  Q 453.50 51.87 457.41 53.22
  Q 471.17 57.97 472.73 74.24
  Q 481.12 161.48 465.06 248.41
  C 443.13 367.14 378.99 467.78 262.51 511.01
  Q 261.45 511.40 257.43 512.00
  L 254.45 512.00
  Q 250.82 511.55 247.50 510.28
  C 119.13 461.54 57.53 344.61 41.51 214.49
  Q 32.77 143.56 39.21 74.91
  C 40.15 64.82 44.40 56.97 54.04 53.40
  Q 57.88 51.98 68.26 51.49
  Q 95.78 50.20 122.95 45.68
  C 135.41 43.61 137.58 58.35 126.72 60.21
  Q 98.69 65.01 61.51 66.75
  C 56.00 67.01 54.56 71.64 54.08 76.67
  Q 46.05 162.37 61.93 246.96
  C 83.05 359.42 142.99 454.98 254.02 496.73
  C 254.94 497.08 256.79 497.15 257.71 496.81
  C 431.18 432.51 473.11 238.01 457.79 75.17
  C 457.33 70.24 454.93 67.07 449.92 66.84
  C 382.75 63.76 318.38 49.48 259.56 15.91
  C 257.74 14.87 254.71 14.66 252.88 15.70
  Q 208.85 40.71 162.21 52.41
  C 152.70 54.79 148.27 40.90 159.89 37.67
  C 190.09 29.26 218.87 18.01 246.06 2.31
  Q 248.84 0.70 254.57 0.00
  Z"
/>
<path fill="#525252" d="
  M 248.17 463.78
  C 104.57 409.94 70.45 243.42 81.99 109.26
  C 82.82 99.57 85.85 92.28 95.10 88.94
  Q 98.39 87.75 108.68 87.27
  C 155.43 85.08 202.43 73.47 243.53 50.68
  C 251.64 46.19 257.28 44.84 265.43 49.03
  C 270.77 51.77 276.44 55.03 281.36 57.41
  C 320.84 76.50 365.05 86.09 408.74 87.49
  C 422.85 87.94 428.92 96.31 430.01 109.14
  C 441.28 241.65 409.18 402.22 271.93 460.61
  C 262.55 464.59 257.25 467.19 248.17 463.78
  Z
  M 407.28 256.11
  C 417.08 207.03 419.40 156.54 414.75 106.75
  C 414.50 104.07 412.12 102.68 409.46 102.58
  C 356.81 100.56 304.20 88.52 258.25 62.00
  C 256.94 61.24 255.23 61.33 253.79 62.14
  C 207.43 88.07 155.71 100.81 102.48 102.55
  C 100.06 102.63 97.50 104.09 97.25 106.49
  Q 90.50 173.26 102.44 242.97
  C 118.24 335.24 163.30 415.06 254.33 450.29
  C 255.07 450.58 257.00 450.60 257.73 450.31
  Q 336.39 419.74 375.74 345.02
  Q 397.94 302.87 407.28 256.11
  Z"
/>
<path fill="#525252" d="
  M 165.67 249.48
  C 167.42 292.77 199.49 328.27 241.50 335.24
  C 275.04 340.81 308.89 326.47 329.02 299.31
  C 336.23 289.59 347.60 299.13 342.08 306.81
  C 309.81 351.67 249.01 364.89 201.37 336.01
  C 123.08 288.53 139.02 169.68 227.28 144.66
  C 304.75 122.70 375.57 191.55 358.71 269.44
  Q 357.80 273.61 356.61 275.30
  C 351.79 282.15 341.64 276.80 343.61 268.54
  Q 350.59 239.37 339.85 212.39
  C 322.54 168.88 274.01 145.76 229.46 159.60
  C 190.45 171.71 164.02 208.69 165.67 249.48
  Z"
/>
<path fill="#525252" d="
  M 195.79 261.52
  C 183.67 242.15 205.33 218.30 225.93 228.44
  C 231.08 230.98 236.61 236.89 241.04 241.42
  A 0.44 0.43 43.7 0 0 241.68 241.41
  Q 258.51 223.08 275.44 204.82
  Q 281.48 198.31 285.41 196.19
  C 304.65 185.82 326.36 206.05 317.68 226.08
  Q 316.10 229.72 310.71 235.59
  Q 287.04 261.36 263.26 287.04
  Q 257.15 293.62 253.21 295.76
  C 242.92 301.34 232.84 298.35 224.70 290.62
  Q 216.60 282.93 208.63 275.14
  Q 197.52 264.29 195.79 261.52
  Z
  M 228.96 250.29
  Q 223.05 244.43 220.79 242.71
  C 214.60 238.00 205.61 244.08 207.75 251.59
  Q 208.50 254.22 211.95 257.56
  Q 223.45 268.68 234.98 279.77
  C 239.07 283.69 244.29 285.51 248.48 280.98
  Q 274.56 252.76 300.62 224.51
  Q 303.20 221.71 303.90 220.11
  C 307.65 211.57 296.11 204.36 289.16 211.91
  Q 268.43 234.43 247.69 256.93
  C 240.50 264.73 233.52 254.80 228.96 250.29
  Z"
/>
</svg>
