<?xml version="1.0" encoding="UTF-8" standalone="no"?>
<!DOCTYPE svg PUBLIC "-//W3C//DTD SVG 1.1//EN" "http://www.w3.org/Graphics/SVG/1.1/DTD/svg11.dtd">
<svg xmlns="http://www.w3.org/2000/svg" version="1.1" viewBox="0.00 0.00 512.00 512.00" width="512.00" height="512.00">
<path fill="#525252" d="
  M 87.97 431.44
  Q 88.06 272.22 87.98 113.00
  C 87.97 89.60 103.55 69.77 126.56 65.13
  Q 132.35 63.97 146.49 63.98
  Q 213.33 64.02 280.16 64.00
  C 293.82 64.00 293.47 79.99 280.88 79.99
  Q 208.69 80.01 136.50 80.04
  C 122.59 80.05 109.61 88.80 105.51 102.25
  Q 104.02 107.17 104.01 118.53
  Q 103.97 275.00 104.01 431.47
  Q 104.02 431.98 104.53 431.98
  Q 234.83 432.03 365.05 431.99
  C 372.22 431.99 375.94 434.13 375.99 441.52
  C 376.06 453.27 374.20 464.92 383.82 473.68
  C 396.76 485.47 417.27 479.88 422.66 463.42
  Q 424.01 459.29 424.01 451.42
  Q 423.99 367.37 424.00 283.58
  A 0.42 0.41 59.1 0 0 423.22 283.38
  C 419.08 291.25 409.68 288.42 407.93 280.34
  Q 400.12 244.32 392.49 208.28
  A 0.49 0.49 0.0 0 0 391.54 208.28
  Q 383.65 245.13 375.69 282.19
  C 374.32 288.55 365.52 289.67 361.67 284.82
  Q 357.25 279.24 341.02 257.27
  A 0.82 0.82 0.0 0 0 340.20 256.95
  Q 323.07 260.24 306.01 263.77
  C 300.66 264.88 295.57 260.79 296.08 255.41
  Q 296.27 253.51 298.71 248.98
  Q 316.46 216.02 334.20 183.07
  Q 334.44 182.62 334.33 182.13
  C 333.44 178.08 334.89 170.60 328.77 170.54
  C 313.59 170.38 302.00 157.64 307.33 142.57
  C 308.76 138.53 313.47 134.01 307.64 130.80
  C 292.68 122.57 292.05 102.23 306.86 93.71
  C 309.68 92.08 311.76 89.62 309.95 86.56
  C 305.63 79.26 304.63 72.12 308.68 64.52
  C 312.04 58.22 318.07 54.41 325.33 53.76
  C 329.05 53.43 333.47 53.97 333.51 48.53
  Q 333.60 33.37 346.62 27.72
  C 353.94 24.54 360.00 26.41 366.66 29.79
  C 369.11 31.04 371.73 30.49 373.01 28.06
  C 381.11 12.64 401.88 11.77 410.49 27.24
  C 413.52 32.70 417.08 29.91 421.03 28.02
  C 434.48 21.58 450.18 31.90 450.30 46.44
  C 450.39 58.09 435.83 58.82 434.54 48.74
  C 433.86 43.51 431.84 39.93 426.03 43.40
  C 415.78 49.53 403.05 46.06 397.01 35.90
  C 391.26 26.25 388.10 35.68 384.64 39.21
  Q 373.12 50.95 358.60 43.72
  Q 355.23 42.04 353.66 42.21
  C 350.35 42.58 349.57 45.44 349.57 48.56
  C 349.56 59.87 340.81 69.18 329.45 69.57
  C 324.01 69.75 320.00 71.69 323.25 77.64
  Q 330.74 91.31 320.81 103.08
  C 318.44 105.90 313.43 107.34 312.19 110.53
  C 310.34 115.33 316.68 116.85 319.31 119.44
  Q 331.09 131.03 323.51 145.83
  Q 322.08 148.62 322.05 149.85
  C 321.90 155.66 330.05 153.99 333.37 154.91
  Q 349.26 159.33 349.66 176.48
  Q 349.74 180.00 352.27 181.38
  C 355.53 183.15 361.69 178.27 365.85 177.71
  C 374.26 176.60 382.10 180.39 386.59 187.47
  C 390.04 192.93 393.47 194.06 397.08 188.00
  C 402.82 178.34 415.09 174.60 425.08 180.06
  C 430.58 183.07 434.46 182.24 434.42 175.32
  C 434.36 163.86 443.47 154.82 454.77 154.44
  C 460.92 154.23 463.83 151.64 460.40 145.76
  C 454.36 135.40 458.24 122.63 468.48 116.77
  Q 471.04 115.29 471.63 113.84
  C 473.80 108.49 467.60 107.44 464.71 104.58
  Q 452.05 92.03 461.67 75.91
  C 463.63 72.64 457.18 68.86 456.71 65.24
  Q 456.15 60.89 459.12 58.24
  C 463.56 54.25 469.07 56.22 472.53 60.49
  Q 480.36 70.13 476.63 81.47
  C 475.32 85.47 470.45 90.03 476.34 93.21
  C 492.39 101.87 491.49 122.90 475.46 131.19
  C 470.73 133.64 476.02 140.23 476.92 143.31
  C 480.30 154.94 473.75 166.95 461.88 169.80
  C 457.16 170.94 450.32 168.60 450.41 175.99
  C 450.60 192.62 433.24 203.74 418.67 194.83
  C 412.10 190.81 410.83 196.99 407.63 200.82
  Q 407.29 201.23 407.40 201.74
  L 420.00 260.51
  A 0.33 0.33 0.0 0 0 420.59 260.64
  Q 427.32 251.44 434.33 242.33
  C 436.13 239.98 439.94 239.82 442.97 240.46
  Q 453.59 242.68 464.25 244.66
  Q 464.87 244.77 464.57 244.22
  Q 456.46 229.05 448.30 213.95
  Q 446.29 210.24 446.16 208.15
  C 445.80 202.36 452.92 198.09 457.73 200.85
  Q 459.99 202.15 462.16 206.12
  Q 473.64 227.12 484.86 248.26
  C 486.54 251.42 488.72 254.36 487.78 257.98
  C 486.28 263.71 481.21 264.38 475.85 263.31
  Q 459.87 260.12 443.91 256.92
  A 0.86 0.86 0.0 0 0 443.06 257.25
  L 440.24 261.01
  Q 440.01 261.32 440.01 261.71
  Q 440.00 358.48 439.96 455.25
  C 439.95 478.41 422.08 496.02 398.75 496.01
  Q 320.72 495.99 242.68 496.00
  Q 238.73 496.00 236.93 495.26
  C 227.92 491.51 231.97 479.99 241.52 480.00
  Q 304.44 480.03 367.37 479.98
  Q 367.96 479.98 367.63 479.50
  Q 358.45 466.02 360.18 449.57
  A 1.42 1.42 0.0 0 0 358.77 448.00
  L 40.53 448.00
  Q 40.21 448.00 40.19 448.32
  C 39.13 462.10 42.69 473.95 56.22 478.59
  Q 60.30 479.99 68.57 479.99
  Q 136.20 480.02 203.83 479.98
  Q 209.27 479.98 211.53 481.00
  C 219.71 484.69 215.99 495.99 206.80 495.99
  Q 136.02 496.01 65.25 496.00
  C 48.79 496.00 34.46 487.31 27.63 472.51
  C 23.38 463.30 23.91 454.56 23.98 443.11
  C 24.03 435.17 26.41 431.96 34.36 431.99
  Q 60.89 432.06 87.44 431.97
  Q 87.97 431.97 87.97 431.44
  Z
  M 345.20 196.33
  L 319.27 244.49
  A 0.20 0.20 0.0 0 0 319.49 244.78
  Q 330.72 242.50 341.99 240.21
  Q 347.23 239.15 349.78 242.48
  Q 356.81 251.62 363.35 260.63
  Q 363.83 261.30 364.01 260.50
  L 376.59 201.80
  Q 376.70 201.28 376.37 200.87
  C 374.26 198.16 371.23 191.02 366.56 194.06
  Q 356.90 200.35 346.08 196.01
  A 0.71 0.70 -64.9 0 0 345.20 196.33
  Z"
/>
<path fill="#525252" d="
  M 447.89 112.00
  A 55.89 55.89 0.0 0 1 392.00 167.89
  A 55.89 55.89 0.0 0 1 336.11 112.00
  A 55.89 55.89 0.0 0 1 392.00 56.11
  A 55.89 55.89 0.0 0 1 447.89 112.00
  Z
  M 431.92 111.99
  A 39.92 39.92 0.0 0 0 392.00 72.07
  A 39.92 39.92 0.0 0 0 352.08 111.99
  A 39.92 39.92 0.0 0 0 392.00 151.91
  A 39.92 39.92 0.0 0 0 431.92 111.99
  Z"
/>
<path fill="#525252" d="
  M 360.11 113.37
  C 359.13 108.20 364.23 103.12 369.18 104.12
  C 373.99 105.08 380.80 113.34 384.32 117.09
  A 0.60 0.59 -39.7 0 0 385.11 117.16
  Q 397.78 107.68 410.56 98.08
  C 419.76 91.16 429.75 103.56 419.40 111.40
  Q 404.88 122.42 390.21 133.28
  C 386.74 135.85 383.00 137.25 379.47 134.55
  C 378.54 133.83 361.08 118.52 360.11 113.37
  Z"
/>
<path fill="#525252" d="
  M 161.23 175.31
  C 155.91 163.04 148.43 151.29 159.38 138.40
  A 0.63 0.63 0.0 0 0 159.38 137.58
  C 155.81 133.48 148.93 127.83 153.44 121.71
  C 158.06 115.45 164.15 118.44 168.14 123.50
  A 0.90 0.89 62.9 0 0 169.08 123.81
  L 171.92 123.02
  Q 172.47 122.87 172.73 122.36
  Q 175.73 116.42 177.32 114.58
  C 180.52 110.87 186.22 111.43 189.28 114.99
  C 194.00 120.50 187.89 127.79 184.99 132.83
  Q 184.72 133.30 185.21 133.55
  Q 193.10 137.46 195.98 145.83
  A 0.62 0.61 -20.5 0 0 196.80 146.20
  Q 204.14 143.27 211.99 144.39
  Q 212.48 144.46 212.63 143.99
  Q 219.14 123.38 241.27 125.73
  Q 241.76 125.79 242.14 125.47
  C 259.66 110.55 285.58 125.78 281.24 148.38
  Q 281.15 148.87 281.47 149.26
  C 289.93 159.36 289.82 172.99 280.31 182.45
  Q 279.98 182.78 279.98 183.25
  Q 279.97 196.56 272.25 207.31
  Q 271.82 207.91 272.56 207.93
  C 277.95 208.13 287.17 206.95 291.52 208.97
  C 299.70 212.76 296.00 223.99 286.81 223.99
  Q 240.02 224.00 193.25 223.84
  Q 170.30 223.76 158.28 205.45
  C 153.92 198.79 145.54 176.40 160.80 175.97
  Q 161.51 175.95 161.23 175.31
  Z
  M 243.06 143.44
  C 240.80 143.29 238.65 141.29 235.86 141.46
  C 230.66 141.76 227.25 145.87 228.36 151.25
  Q 228.46 151.70 228.80 152.00
  Q 239.35 161.24 239.91 175.40
  A 0.62 0.62 0.0 0 0 240.53 176.00
  L 247.75 176.00
  Q 248.34 176.00 248.64 175.50
  Q 250.97 171.57 255.46 171.25
  C 258.57 171.03 260.97 173.51 264.19 173.26
  C 272.24 172.64 274.10 162.77 267.84 158.39
  C 264.95 156.37 263.86 154.59 263.75 151.28
  C 263.64 148.39 265.93 146.25 265.78 143.21
  C 265.49 137.35 259.01 133.48 253.83 136.61
  C 249.38 139.30 249.68 143.88 243.06 143.44
  Z
  M 178.28 147.99
  C 174.64 145.91 169.94 148.35 169.70 152.32
  C 169.44 156.41 174.48 165.74 176.19 169.87
  A 0.34 0.34 0.0 0 0 176.83 169.80
  Q 177.98 163.51 181.54 158.21
  Q 181.84 157.76 181.81 157.21
  C 181.63 154.03 181.60 149.88 178.28 147.99
  Z
  M 192.25 176.00
  L 223.77 176.00
  A 0.13 0.13 0.0 0 0 223.90 175.87
  L 223.90 175.82
  A 15.84 15.76 -0.0 0 0 208.06 160.06
  L 207.96 160.06
  A 15.84 15.76 0.0 0 0 192.12 175.82
  L 192.12 175.87
  A 0.13 0.13 0.0 0 0 192.25 176.00
  Z
  M 169.62 192.53
  C 174.01 204.03 183.80 207.93 195.34 207.97
  Q 215.44 208.05 235.52 207.98
  C 248.20 207.93 257.21 204.71 262.38 192.56
  Q 262.62 192.00 262.01 192.00
  L 169.99 192.00
  A 0.39 0.39 0.0 0 0 169.62 192.53
  Z"
/>
<rect fill="#525252" x="136.08" y="248.02" width="143.84" height="15.96" rx="7.88"/>
<rect fill="#525252" x="136.07" y="288.01" width="207.86" height="15.98" rx="7.91"/>
<rect fill="#525252" x="136.07" y="328.01" width="151.86" height="15.98" rx="7.88"/>
<path fill="#525252" d="
  M 369.15 389.14
  A 0.89 0.89 0.0 0 0 368.80 389.99
  C 370.51 401.13 361.55 410.15 350.21 408.71
  Q 349.70 408.65 349.36 409.03
  C 341.23 418.16 330.66 418.46 322.66 409.11
  Q 322.34 408.73 321.84 408.80
  C 310.44 410.33 302.05 401.50 303.21 390.12
  Q 303.26 389.62 302.87 389.29
  C 293.70 381.52 293.73 370.15 302.89 362.73
  Q 303.28 362.43 303.21 361.94
  C 301.54 350.58 310.69 341.81 321.97 343.24
  A 0.83 0.82 22.1 0 0 322.75 342.92
  C 329.67 333.95 342.39 333.53 349.18 342.91
  Q 349.48 343.33 349.99 343.25
  C 361.61 341.44 369.85 350.56 368.79 361.94
  Q 368.75 362.42 369.13 362.72
  C 378.01 369.54 378.38 382.42 369.15 389.14
  Z
  M 319.55 392.75
  C 326.57 392.69 331.20 393.83 335.60 399.52
  Q 335.94 399.96 336.29 399.52
  Q 342.51 391.63 352.65 392.98
  A 0.24 0.24 0.0 0 0 352.93 392.71
  Q 351.54 382.55 359.49 376.52
  Q 359.97 376.16 359.50 375.77
  Q 351.76 369.57 352.92 359.59
  A 0.38 0.38 0.0 0 0 352.50 359.17
  Q 342.41 360.27 336.45 352.38
  A 0.47 0.46 -44.0 0 0 335.71 352.37
  Q 329.68 360.16 319.70 359.09
  Q 319.13 359.03 319.19 359.60
  Q 320.19 369.51 312.50 375.49
  Q 312.01 375.87 312.49 376.24
  Q 320.14 382.32 319.09 392.25
  Q 319.04 392.76 319.55 392.75
  Z"
/>
<rect fill="#525252" x="136.08" y="368.02" width="135.84" height="15.96" rx="7.87"/>
</svg>
