<?xml version="1.0" encoding="UTF-8" standalone="no"?>
<!DOCTYPE svg PUBLIC "-//W3C//DTD SVG 1.1//EN" "http://www.w3.org/Graphics/SVG/1.1/DTD/svg11.dtd">
<svg xmlns="http://www.w3.org/2000/svg" version="1.1" viewBox="0.00 0.00 320.00 320.00" width="320.00" height="320.00">
<path fill="#525252" d="
  M 146.94 292.28
  C 195.25 244.41 243.09 196.05 291.26 148.04
  C 295.55 143.76 294.07 136.11 294.32 130.88
  A 0.62 0.61 1.0 0 1 294.93 130.30
  L 306.80 130.14
  Q 307.19 130.14 307.21 130.53
  C 307.68 142.54 306.95 150.42 298.16 159.22
  Q 229.54 227.84 160.91 296.46
  Q 153.98 303.39 150.68 304.93
  C 143.93 308.07 134.82 307.04 129.26 301.49
  Q 76.05 248.41 22.89 195.28
  Q 16.60 189.00 14.89 185.20
  C 10.89 176.34 14.04 168.56 20.66 161.95
  Q 89.93 92.73 159.15 23.46
  C 166.35 16.25 171.42 12.83 181.20 12.81
  Q 230.95 12.71 280.73 12.74
  C 292.45 12.74 301.99 17.16 305.90 28.86
  Q 307.27 32.96 307.27 40.79
  Q 307.25 84.15 307.24 127.52
  Q 307.23 128.50 306.67 127.70
  C 303.07 122.63 298.02 122.48 294.75 127.89
  Q 294.29 128.64 294.30 127.77
  Q 294.72 82.22 294.39 36.69
  C 294.34 29.97 291.91 25.53 284.69 25.51
  Q 235.47 25.41 186.27 25.56
  C 178.70 25.59 175.58 25.17 170.75 30.00
  Q 98.41 102.41 25.99 174.74
  C 23.48 177.26 26.70 181.06 28.45 182.80
  Q 84.01 237.99 139.28 293.47
  C 142.00 296.20 144.54 294.65 146.94 292.28
  Z"
/>
<path fill="#525252" d="
  M 265.8499 89.2739
  A 22.92 22.92 0.0 0 1 233.4362 89.3304
  L 230.7161 86.6199
  A 22.92 22.92 0.0 0 1 230.6596 54.2062
  L 233.3701 51.4861
  A 22.92 22.92 0.0 0 1 265.7838 51.4296
  L 268.5039 54.1401
  A 22.92 22.92 0.0 0 1 268.5604 86.5538
  L 265.8499 89.2739
  Z
  M 262.2143 69.1842
  A 11.52 11.52 0.0 0 0 250.7345 57.6241
  L 248.4545 57.6161
  A 11.52 11.52 0.0 0 0 236.8944 69.0958
  L 236.8857 71.5758
  A 11.52 11.52 0.0 0 0 248.3655 83.1359
  L 250.6455 83.1439
  A 11.52 11.52 0.0 0 0 262.2056 71.6642
  L 262.2143 69.1842
  Z"
/>
<path fill="#525252" d="
  M 118.99 199.03
  C 106.36 183.86 107.41 166.58 119.64 151.69
  A 0.65 0.64 42.4 0 1 120.59 151.65
  L 128.67 159.80
  A 0.62 0.62 0.0 0 1 128.68 160.66
  C 120.58 169.21 120.42 181.34 127.33 190.73
  Q 127.67 191.19 128.08 190.79
  L 155.07 163.82
  A 0.99 0.98 -39.8 0 0 155.19 162.57
  C 149.31 153.91 143.40 141.35 147.55 130.81
  C 149.63 125.53 155.54 119.60 160.59 116.61
  C 172.85 109.37 186.32 111.52 197.50 120.78
  A 0.51 0.51 0.0 0 0 198.18 120.75
  L 204.32 114.54
  A 0.67 0.67 0.0 0 1 205.26 114.52
  L 210.20 119.26
  Q 210.66 119.71 210.21 120.17
  L 203.81 126.56
  A 0.60 0.59 48.5 0 0 203.77 127.35
  C 213.87 139.85 212.23 155.18 203.60 167.92
  Q 203.35 168.28 203.04 167.97
  L 195.06 159.90
  A 0.96 0.95 -51.1 0 1 194.94 158.71
  Q 202.37 147.42 195.28 135.93
  A 0.46 0.46 0.0 0 0 194.56 135.84
  L 169.46 160.91
  Q 169.07 161.30 169.34 161.78
  C 172.07 166.66 175.41 171.83 176.94 176.78
  Q 182.31 194.25 170.76 205.71
  C 157.00 219.37 139.83 217.09 125.47 205.66
  Q 125.06 205.34 124.70 205.70
  L 116.81 213.56
  A 0.62 0.62 0.0 0 1 115.94 213.56
  L 110.94 208.57
  Q 110.62 208.25 110.94 207.94
  L 118.95 199.92
  Q 119.38 199.49 118.99 199.03
  Z
  M 165.38 153.55
  L 189.21 129.63
  A 0.15 0.15 0.0 0 0 189.21 129.42
  L 189.14 129.36
  A 17.03 16.90 -45.1 0 0 165.15 129.49
  L 165.15 129.49
  A 17.03 16.90 -45.1 0 0 165.10 153.48
  L 165.16 153.55
  A 0.15 0.15 0.0 0 0 165.38 153.55
  Z
  M 159.17 171.20
  L 133.83 196.55
  Q 133.47 196.91 133.84 197.25
  Q 144.83 207.21 156.02 200.57
  C 168.31 193.26 166.60 181.86 159.89 171.28
  Q 159.58 170.79 159.17 171.20
  Z"
/>
</svg>
