<?xml version="1.0" encoding="UTF-8" standalone="no"?>
<!DOCTYPE svg PUBLIC "-//W3C//DTD SVG 1.1//EN" "http://www.w3.org/Graphics/SVG/1.1/DTD/svg11.dtd">
<svg xmlns="http://www.w3.org/2000/svg" version="1.1" viewBox="0.00 0.00 550.00 550.00" width="550.00" height="550.00">
<path fill="#ffa500" d="
  M 232.48 236.53
  L 388.30 273.76
  A 0.30 0.30 0.0 0 1 388.30 274.34
  L 232.61 312.12
  A 0.30 0.30 0.0 0 0 232.39 312.34
  L 195.16 468.16
  A 0.30 0.30 0.0 0 1 194.58 468.16
  L 156.80 312.47
  A 0.30 0.30 0.0 0 0 156.58 312.25
  L 0.76 275.02
  A 0.30 0.30 0.0 0 1 0.76 274.44
  L 156.45 236.66
  A 0.30 0.30 0.0 0 0 156.67 236.44
  L 193.90 80.62
  A 0.30 0.30 0.0 0 1 194.48 80.62
  L 232.26 236.31
  A 0.30 0.30 0.0 0 0 232.48 236.53
  Z
  M 193.00 265.00
  L 193.06 119.25
  A 0.17 0.14 -44.5 0 0 192.75 119.28
  L 165.90 237.31
  Q 165.77 237.87 166.18 238.28
  L 192.56 265.18
  A 0.26 0.26 0.0 0 0 193.00 265.00
  Z
  M 351.25 273.08
  L 233.00 246.23
  A 0.92 0.76 -58.7 0 0 232.21 246.50
  L 205.55 272.86
  A 0.37 0.37 0.0 0 0 205.81 273.50
  L 351.20 273.50
  A 0.21 0.21 0.0 0 0 351.25 273.08
  Z
  M 183.04 275.34
  L 38.08 275.39
  A 0.19 0.19 0.0 0 0 38.04 275.77
  L 155.87 302.51
  Q 156.39 302.63 156.78 302.26
  L 183.41 276.23
  A 0.52 0.52 0.0 0 0 183.04 275.34
  Z
  M 222.26 309.81
  C 213.65 301.27 205.40 292.34 196.68 283.81
  Q 196.26 283.40 196.26 283.99
  L 196.21 429.44
  A 0.13 0.13 0.0 0 0 196.47 429.47
  Q 209.45 372.08 222.34 314.77
  C 222.73 313.01 223.92 311.46 222.26 309.81
  Z"
/>
<path fill="#ffa500" d="
  M 370.59 144.58
  L 433.52 159.50
  A 0.33 0.33 0.0 0 1 433.52 160.14
  L 370.64 175.29
  A 0.33 0.33 0.0 0 0 370.40 175.53
  L 355.48 238.46
  A 0.33 0.33 0.0 0 1 354.84 238.46
  L 339.69 175.58
  A 0.33 0.33 0.0 0 0 339.45 175.34
  L 276.52 160.42
  A 0.33 0.33 0.0 0 1 276.52 159.78
  L 339.40 144.63
  A 0.33 0.33 0.0 0 0 339.64 144.39
  L 354.56 81.46
  A 0.33 0.33 0.0 0 1 355.20 81.46
  L 370.35 144.34
  A 0.33 0.33 0.0 0 0 370.59 144.58
  Z
  M 354.02 97.49
  L 343.39 144.66
  Q 343.29 145.13 343.62 145.46
  L 353.65 155.60
  Q 354.50 156.45 354.50 155.25
  L 354.50 97.55
  A 0.24 0.24 0.0 0 0 354.02 97.49
  Z
  M 417.46 159.01
  L 370.93 148.52
  A 0.84 0.81 27.8 0 0 370.18 148.74
  L 359.59 159.20
  A 0.17 0.17 0.0 0 0 359.71 159.49
  L 417.40 159.55
  A 0.27 0.27 0.0 0 0 417.46 159.01
  Z
  M 291.73 160.71
  L 338.94 171.34
  Q 339.52 171.47 339.94 171.05
  L 350.34 160.93
  A 0.41 0.40 22.6 0 0 350.05 160.24
  L 291.78 160.28
  A 0.22 0.22 0.0 0 0 291.73 160.71
  Z
  M 366.36 174.54
  L 356.14 163.85
  A 0.23 0.23 0.0 0 0 355.75 164.01
  L 355.71 222.44
  A 0.16 0.16 0.0 0 0 356.02 222.48
  L 366.59 175.39
  Q 366.70 174.90 366.36 174.54
  Z"
/>
<path fill="#ffa500" d="
  M 485.59 259.55
  L 548.53 274.49
  A 0.33 0.33 0.0 0 1 548.53 275.13
  L 485.65 290.30
  A 0.33 0.33 0.0 0 0 485.40 290.54
  L 470.46 353.48
  A 0.33 0.33 0.0 0 1 469.82 353.48
  L 454.65 290.60
  A 0.33 0.33 0.0 0 0 454.41 290.35
  L 391.47 275.41
  A 0.33 0.33 0.0 0 1 391.47 274.77
  L 454.35 259.60
  A 0.33 0.33 0.0 0 0 454.60 259.36
  L 469.54 196.42
  A 0.33 0.33 0.0 0 1 470.18 196.42
  L 485.35 259.30
  A 0.33 0.33 0.0 0 0 485.59 259.55
  Z
  M 469.04 212.46
  L 458.40 259.62
  Q 458.29 260.12 458.64 260.48
  L 469.01 270.97
  A 0.29 0.29 0.0 0 0 469.50 270.77
  L 469.50 212.75
  A 0.44 0.41 21.5 0 0 469.35 212.43
  Q 469.24 212.33 469.11 212.31
  A 0.17 0.04 -79.4 0 0 469.04 212.46
  Z
  M 474.79 274.55
  Q 500.24 274.43 525.53 274.53
  C 527.65 274.54 530.51 275.02 533.23 274.37
  Q 533.64 274.27 533.23 274.18
  L 486.01 263.56
  A 0.99 0.97 28.7 0 0 485.10 263.82
  L 474.63 274.16
  A 0.23 0.23 0.0 0 0 474.79 274.55
  Z
  M 407.55 275.29
  A 0.30 0.30 0.0 0 0 407.48 275.88
  L 454.28 286.41
  A 0.30 0.30 0.0 0 0 454.56 286.34
  L 465.55 275.75
  A 0.30 0.30 0.0 0 0 465.34 275.23
  L 407.55 275.29
  Z
  M 470.70 337.24
  A 0.18 0.18 0.0 0 0 471.05 337.28
  L 481.59 290.40
  Q 481.70 289.91 481.36 289.55
  L 471.14 278.85
  A 0.23 0.22 23.3 0 0 470.75 279.00
  L 470.70 337.24
  Z"
/>
<path fill="#ffa500" d="
  M 370.58 374.58
  L 433.52 389.51
  A 0.32 0.32 0.0 0 1 433.52 390.13
  L 370.63 405.29
  A 0.32 0.32 0.0 0 0 370.39 405.53
  L 355.46 468.47
  A 0.32 0.32 0.0 0 1 354.84 468.47
  L 339.68 405.58
  A 0.32 0.32 0.0 0 0 339.44 405.34
  L 276.50 390.41
  A 0.32 0.32 0.0 0 1 276.50 389.79
  L 339.39 374.63
  A 0.32 0.32 0.0 0 0 339.63 374.39
  L 354.56 311.45
  A 0.32 0.32 0.0 0 1 355.18 311.45
  L 370.34 374.34
  A 0.32 0.32 0.0 0 0 370.58 374.58
  Z
  M 354.50 385.56
  L 354.50 327.55
  A 0.24 0.24 0.0 0 0 354.02 327.49
  L 343.40 374.61
  Q 343.29 375.11 343.64 375.47
  L 353.85 385.83
  Q 354.50 386.49 354.50 385.56
  Z
  M 359.77 389.48
  L 416.70 389.56
  Q 419.90 389.57 416.78 388.86
  L 370.99 378.54
  Q 370.49 378.43 370.10 378.81
  L 359.63 389.16
  A 0.19 0.19 0.0 0 0 359.77 389.48
  Z
  M 292.57 390.27
  A 0.31 0.31 0.0 0 0 292.50 390.88
  L 339.34 401.42
  A 0.31 0.31 0.0 0 0 339.62 401.34
  L 350.50 390.77
  A 0.31 0.31 0.0 0 0 350.29 390.24
  L 292.57 390.27
  Z
  M 355.75 394.00
  L 355.71 452.43
  A 0.15 0.15 0.0 0 0 356.01 452.46
  L 366.59 405.39
  Q 366.70 404.90 366.35 404.54
  L 356.14 393.85
  A 0.23 0.22 23.3 0 0 355.75 394.00
  Z"
/>
<path fill="#ffa500" d="
  M 94.61 375.56
  L 157.54 390.52
  A 0.31 0.31 0.0 0 1 157.54 391.12
  L 94.66 406.31
  A 0.31 0.31 0.0 0 0 94.43 406.54
  L 79.47 469.47
  A 0.31 0.31 0.0 0 1 78.87 469.47
  L 63.68 406.59
  A 0.31 0.31 0.0 0 0 63.45 406.36
  L 0.52 391.40
  A 0.31 0.31 0.0 0 1 0.52 390.80
  L 63.40 375.61
  A 0.31 0.31 0.0 0 0 63.63 375.38
  L 78.59 312.45
  A 0.31 0.31 0.0 0 1 79.19 312.45
  L 94.38 375.33
  A 0.31 0.31 0.0 0 0 94.61 375.56
  Z
  M 78.51 386.56
  L 78.49 328.50
  A 0.23 0.23 0.0 0 0 78.04 328.45
  L 67.40 375.61
  Q 67.29 376.11 67.64 376.47
  L 77.85 386.83
  Q 78.51 387.50 78.51 386.56
  Z
  M 134.64 390.55
  C 136.77 390.56 139.42 391.06 142.00 390.34
  Q 142.45 390.22 141.99 390.11
  L 95.41 379.66
  A 1.75 1.72 28.5 0 0 93.80 380.12
  L 83.63 390.16
  A 0.22 0.22 0.0 0 0 83.79 390.54
  Q 109.80 390.44 134.64 390.55
  Z
  M 16.23 391.83
  L 62.95 402.33
  Q 63.53 402.46 63.95 402.05
  L 74.26 392.00
  A 0.46 0.46 0.0 0 0 73.94 391.21
  Q 45.99 391.34 19.25 391.32
  Q 17.55 391.32 16.24 391.57
  Q 15.60 391.69 16.23 391.83
  Z
  M 79.85 395.47
  Q 79.46 421.23 79.83 446.92
  C 79.85 448.57 79.13 451.07 79.70 453.24
  Q 79.89 453.94 80.05 453.23
  L 90.60 406.40
  Q 90.71 405.90 90.36 405.54
  L 80.46 395.23
  Q 79.87 394.61 79.85 395.47
  Z"
/>
</svg>
