<?xml version="1.0" encoding="UTF-8"?>
<svg xmlns="http://www.w3.org/2000/svg" xmlns:xlink="http://www.w3.org/1999/xlink" width="61px" height="61px" viewBox="0 0 61 61" version="1.1">
<g id="surface1">
<path style=" stroke:none;fill-rule:nonzero;fill:rgb(100%,64.705882%,0%);fill-opacity:1;" d="M 17.625 24.527344 C 17.65625 24.515625 17.675781 24.496094 17.679688 24.460938 L 21.394531 0.09375 C 21.394531 0.0898438 21.398438 0.0859375 21.402344 0.0859375 C 21.40625 0.0859375 21.410156 0.0898438 21.410156 0.09375 L 25.359375 24.621094 C 25.359375 24.636719 25.371094 24.652344 25.386719 24.660156 L 41.164062 30.375 C 41.207031 30.390625 41.207031 30.40625 41.164062 30.421875 L 25.402344 36.398438 C 25.308594 36.4375 25.242188 36.519531 25.226562 36.617188 L 21.527344 60.902344 C 21.527344 60.90625 21.523438 60.910156 21.519531 60.910156 C 21.515625 60.910156 21.511719 60.90625 21.511719 60.902344 L 17.589844 36.382812 C 17.582031 36.339844 17.558594 36.308594 17.515625 36.292969 L 1.78125 30.601562 C 1.765625 30.597656 1.757812 30.585938 1.757812 30.570312 C 1.757812 30.554688 1.765625 30.542969 1.78125 30.539062 Z M 21.285156 6.214844 L 18.554688 24.730469 C 18.550781 24.769531 18.558594 24.804688 18.578125 24.835938 L 21.269531 29.050781 C 21.277344 29.0625 21.289062 29.070312 21.300781 29.066406 C 21.3125 29.0625 21.320312 29.050781 21.324219 29.035156 C 21.320312 21.675781 21.320312 14.308594 21.324219 6.933594 C 21.324219 6.734375 21.375 6.46875 21.308594 6.210938 C 21.296875 6.175781 21.289062 6.175781 21.285156 6.214844 Z M 37.304688 30.335938 C 37.320312 30.335938 37.335938 30.320312 37.335938 30.304688 C 37.339844 30.289062 37.332031 30.273438 37.316406 30.269531 L 25.34375 26.074219 C 25.328125 26.070312 25.3125 26.074219 25.304688 26.089844 L 22.558594 30.28125 C 22.550781 30.289062 22.550781 30.304688 22.558594 30.316406 C 22.5625 30.328125 22.574219 30.332031 22.585938 30.332031 Z M 5.585938 30.667969 C 5.582031 30.671875 5.578125 30.679688 5.578125 30.683594 C 5.582031 30.691406 5.585938 30.695312 5.589844 30.695312 L 17.589844 34.894531 C 17.597656 34.894531 17.605469 34.894531 17.609375 34.886719 L 20.402344 30.664062 C 20.40625 30.65625 20.40625 30.652344 20.402344 30.644531 C 20.398438 30.640625 20.394531 30.636719 20.386719 30.636719 L 5.621094 30.636719 C 5.617188 30.640625 5.613281 30.640625 5.609375 30.644531 Z M 21.625 54.648438 C 21.625 54.730469 21.636719 54.730469 21.652344 54.652344 C 21.707031 54.402344 21.757812 54.125 21.800781 53.820312 C 22.65625 47.960938 23.507812 42.101562 24.367188 36.238281 C 24.371094 36.199219 24.363281 36.164062 24.34375 36.128906 L 21.695312 31.957031 C 21.6875 31.941406 21.667969 31.933594 21.652344 31.9375 C 21.636719 31.945312 21.628906 31.957031 21.628906 31.976562 Z M 21.625 54.648438 "/>
<path style=" stroke:none;fill-rule:nonzero;fill:rgb(100%,64.705882%,0%);fill-opacity:1;" d="M 41.324219 12.929688 L 48.304688 14.585938 C 48.320312 14.589844 48.332031 14.605469 48.332031 14.621094 C 48.332031 14.636719 48.320312 14.652344 48.304688 14.65625 L 41.328125 16.335938 C 41.316406 16.339844 41.304688 16.347656 41.300781 16.363281 L 39.644531 23.34375 C 39.640625 23.359375 39.628906 23.371094 39.609375 23.371094 C 39.59375 23.371094 39.582031 23.359375 39.578125 23.34375 L 37.894531 16.367188 C 37.890625 16.355469 37.882812 16.34375 37.867188 16.339844 L 30.886719 14.683594 C 30.871094 14.679688 30.859375 14.667969 30.859375 14.652344 C 30.859375 14.636719 30.871094 14.621094 30.886719 14.617188 L 37.863281 12.933594 C 37.875 12.933594 37.886719 12.921875 37.890625 12.910156 L 39.546875 5.925781 C 39.550781 5.910156 39.5625 5.898438 39.582031 5.898438 C 39.597656 5.898438 39.609375 5.910156 39.613281 5.925781 L 41.296875 12.902344 C 41.300781 12.917969 41.308594 12.925781 41.324219 12.929688 Z M 39.488281 7.695312 L 38.308594 12.929688 C 38.296875 12.96875 38.308594 13 38.332031 13.027344 L 39.484375 14.195312 C 39.492188 14.203125 39.507812 14.207031 39.519531 14.203125 C 39.53125 14.199219 39.539062 14.183594 39.539062 14.171875 C 39.539062 12.03125 39.539062 9.890625 39.539062 7.746094 C 39.539062 7.742188 39.539062 7.738281 39.535156 7.734375 C 39.527344 7.707031 39.515625 7.691406 39.5 7.6875 C 39.496094 7.6875 39.496094 7.6875 39.492188 7.6875 C 39.492188 7.691406 39.488281 7.691406 39.488281 7.695312 Z M 46.523438 14.527344 L 41.359375 13.367188 C 41.328125 13.359375 41.296875 13.371094 41.277344 13.390625 L 40.105469 14.550781 C 40.097656 14.558594 40.097656 14.566406 40.097656 14.570312 C 40.101562 14.578125 40.109375 14.582031 40.117188 14.582031 L 46.515625 14.589844 C 46.53125 14.589844 46.542969 14.578125 46.542969 14.5625 C 46.546875 14.546875 46.535156 14.53125 46.523438 14.527344 Z M 39.011719 14.667969 L 32.679688 14.671875 C 32.46875 14.671875 32.464844 14.695312 32.671875 14.742188 L 37.820312 15.898438 C 37.855469 15.90625 37.890625 15.898438 37.914062 15.875 L 39.054688 14.765625 C 39.121094 14.699219 39.109375 14.667969 39.011719 14.667969 Z M 40.851562 16.25 L 39.722656 15.066406 C 39.714844 15.058594 39.703125 15.058594 39.691406 15.0625 C 39.683594 15.066406 39.675781 15.074219 39.675781 15.082031 L 39.671875 21.574219 C 39.671875 21.582031 39.679688 21.589844 39.6875 21.589844 C 39.699219 21.589844 39.707031 21.585938 39.707031 21.578125 L 40.878906 16.34375 C 40.886719 16.308594 40.878906 16.277344 40.851562 16.25 Z M 40.851562 16.25 "/>
<path style=" stroke:none;fill-rule:nonzero;fill:rgb(100%,64.705882%,0%);fill-opacity:1;" d="M 53.855469 28.785156 L 60.839844 30.445312 C 60.855469 30.449219 60.867188 30.460938 60.867188 30.480469 C 60.867188 30.496094 60.855469 30.511719 60.839844 30.515625 L 53.863281 32.195312 C 53.847656 32.199219 53.839844 32.210938 53.835938 32.222656 L 52.179688 39.207031 C 52.175781 39.222656 52.160156 39.234375 52.144531 39.234375 C 52.125 39.234375 52.113281 39.222656 52.105469 39.207031 L 50.425781 32.230469 C 50.421875 32.214844 50.410156 32.207031 50.398438 32.203125 L 43.417969 30.546875 C 43.398438 30.542969 43.390625 30.527344 43.390625 30.511719 C 43.390625 30.492188 43.398438 30.480469 43.417969 30.472656 L 50.390625 28.792969 C 50.40625 28.789062 50.414062 28.777344 50.417969 28.765625 L 52.078125 21.785156 C 52.082031 21.765625 52.09375 21.757812 52.113281 21.757812 C 52.128906 21.757812 52.144531 21.765625 52.148438 21.785156 L 53.828125 28.757812 C 53.832031 28.773438 53.84375 28.78125 53.855469 28.785156 Z M 52.019531 23.5625 L 50.839844 28.792969 C 50.832031 28.832031 50.839844 28.863281 50.867188 28.890625 L 52.015625 30.054688 C 52.027344 30.0625 52.039062 30.0625 52.050781 30.058594 C 52.0625 30.054688 52.070312 30.042969 52.070312 30.03125 L 52.070312 23.597656 C 52.070312 23.582031 52.066406 23.570312 52.054688 23.558594 C 52.046875 23.554688 52.039062 23.546875 52.027344 23.546875 C 52.027344 23.546875 52.023438 23.554688 52.019531 23.5625 Z M 52.660156 30.449219 C 54.539062 30.441406 56.417969 30.441406 58.285156 30.449219 C 58.519531 30.449219 58.839844 30.503906 59.140625 30.429688 C 59.171875 30.421875 59.171875 30.414062 59.140625 30.410156 L 53.902344 29.230469 C 53.867188 29.222656 53.828125 29.234375 53.800781 29.261719 L 52.640625 30.40625 C 52.632812 30.414062 52.632812 30.425781 52.636719 30.433594 C 52.640625 30.445312 52.648438 30.449219 52.660156 30.449219 Z M 45.199219 30.53125 C 45.183594 30.53125 45.171875 30.546875 45.167969 30.5625 C 45.167969 30.578125 45.175781 30.59375 45.191406 30.597656 L 50.382812 31.765625 C 50.394531 31.769531 50.40625 31.765625 50.414062 31.757812 L 51.632812 30.582031 C 51.644531 30.574219 51.648438 30.558594 51.640625 30.546875 C 51.636719 30.535156 51.625 30.523438 51.609375 30.527344 Z M 52.203125 37.402344 C 52.207031 37.414062 52.214844 37.417969 52.222656 37.421875 C 52.230469 37.421875 52.242188 37.417969 52.242188 37.40625 L 53.414062 32.207031 C 53.421875 32.171875 53.414062 32.140625 53.386719 32.113281 L 52.253906 30.925781 C 52.246094 30.917969 52.234375 30.917969 52.226562 30.921875 C 52.214844 30.925781 52.210938 30.933594 52.210938 30.945312 Z M 52.203125 37.402344 "/>
<path style=" stroke:none;fill-rule:nonzero;fill:rgb(100%,64.705882%,0%);fill-opacity:1;" d="M 10.765625 45.480469 L 17.75 47.136719 C 17.765625 47.140625 17.777344 47.15625 17.777344 47.171875 C 17.777344 47.1875 17.765625 47.203125 17.75 47.207031 L 10.773438 48.886719 C 10.757812 48.890625 10.75 48.902344 10.746094 48.914062 L 9.089844 55.898438 C 9.085938 55.914062 9.070312 55.925781 9.054688 55.925781 C 9.039062 55.925781 9.027344 55.914062 9.023438 55.898438 L 7.339844 48.917969 C 7.335938 48.90625 7.328125 48.894531 7.316406 48.894531 L 0.328125 47.234375 C 0.3125 47.230469 0.304688 47.21875 0.304688 47.203125 C 0.304688 47.1875 0.3125 47.171875 0.328125 47.167969 L 7.308594 45.488281 C 7.320312 45.484375 7.332031 45.472656 7.335938 45.460938 L 8.992188 38.476562 C 8.996094 38.460938 9.007812 38.449219 9.023438 38.449219 C 9.039062 38.449219 9.054688 38.460938 9.058594 38.476562 L 10.742188 45.457031 C 10.742188 45.46875 10.753906 45.480469 10.765625 45.480469 Z M 8.929688 46.746094 C 8.9375 46.753906 8.953125 46.753906 8.964844 46.75 C 8.976562 46.746094 8.984375 46.734375 8.984375 46.71875 L 8.984375 40.238281 C 8.980469 40.226562 8.972656 40.222656 8.964844 40.21875 C 8.957031 40.21875 8.945312 40.222656 8.945312 40.234375 L 7.75 45.484375 C 7.742188 45.519531 7.75 45.554688 7.777344 45.582031 Z M 16.097656 47.144531 C 16.105469 47.144531 16.113281 47.140625 16.113281 47.132812 C 16.117188 47.125 16.109375 47.117188 16.101562 47.117188 L 10.816406 45.917969 C 10.773438 45.910156 10.738281 45.921875 10.710938 45.949219 L 9.574219 47.085938 C 9.542969 47.117188 9.546875 47.132812 9.59375 47.136719 Z M 2.089844 47.285156 L 7.210938 48.4375 C 7.285156 48.453125 7.351562 48.4375 7.40625 48.382812 L 8.535156 47.273438 C 8.574219 47.238281 8.566406 47.21875 8.515625 47.21875 L 2.097656 47.21875 C 1.90625 47.21875 1.902344 47.242188 2.089844 47.285156 Z M 9.179688 47.632812 C 9.167969 47.625 9.15625 47.621094 9.144531 47.625 C 9.132812 47.632812 9.125 47.644531 9.125 47.65625 L 9.113281 54.125 C 9.113281 54.15625 9.117188 54.164062 9.125 54.144531 C 9.128906 54.132812 9.128906 54.117188 9.125 54.101562 C 9.171875 53.996094 9.207031 53.882812 9.234375 53.769531 C 9.582031 52.144531 9.949219 50.527344 10.332031 48.910156 C 10.339844 48.871094 10.332031 48.839844 10.304688 48.808594 Z M 9.179688 47.632812 "/>
<path style=" stroke:none;fill-rule:nonzero;fill:rgb(100%,64.705882%,0%);fill-opacity:1;" d="M 41.324219 45.648438 L 48.304688 47.300781 C 48.320312 47.308594 48.328125 47.320312 48.328125 47.335938 C 48.328125 47.351562 48.320312 47.367188 48.304688 47.371094 L 41.328125 49.054688 C 41.316406 49.054688 41.304688 49.066406 41.300781 49.078125 L 39.644531 56.058594 C 39.640625 56.074219 39.628906 56.085938 39.609375 56.085938 C 39.59375 56.085938 39.582031 56.074219 39.578125 56.058594 L 37.894531 49.085938 C 37.890625 49.070312 37.882812 49.0625 37.867188 49.058594 L 30.886719 47.402344 C 30.871094 47.398438 30.863281 47.382812 30.863281 47.367188 C 30.863281 47.351562 30.871094 47.335938 30.886719 47.332031 L 37.863281 45.652344 C 37.875 45.648438 37.886719 45.640625 37.890625 45.625 L 39.546875 38.644531 C 39.550781 38.628906 39.5625 38.617188 39.582031 38.617188 C 39.597656 38.617188 39.609375 38.628906 39.613281 38.644531 L 41.296875 45.621094 C 41.300781 45.632812 41.308594 45.644531 41.324219 45.648438 Z M 39.539062 46.867188 L 39.539062 40.425781 C 39.539062 40.414062 39.53125 40.398438 39.515625 40.398438 C 39.5 40.398438 39.488281 40.40625 39.488281 40.421875 L 38.308594 45.640625 C 38.300781 45.683594 38.308594 45.722656 38.339844 45.753906 L 39.46875 46.894531 C 39.515625 46.945312 39.539062 46.933594 39.539062 46.867188 Z M 46.351562 47.308594 C 46.636719 47.308594 46.640625 47.277344 46.363281 47.214844 L 41.359375 46.085938 C 41.328125 46.078125 41.296875 46.089844 41.277344 46.109375 L 40.117188 47.257812 C 40.109375 47.261719 40.109375 47.273438 40.113281 47.285156 C 40.117188 47.292969 40.125 47.300781 40.136719 47.300781 Z M 32.644531 47.453125 L 37.8125 48.613281 C 37.855469 48.625 37.890625 48.613281 37.921875 48.582031 L 39.082031 47.457031 C 39.09375 47.445312 39.097656 47.429688 39.089844 47.414062 C 39.085938 47.398438 39.070312 47.386719 39.050781 47.386719 C 36.988281 47.386719 34.929688 47.386719 32.867188 47.386719 C 32.796875 47.386719 32.730469 47.417969 32.648438 47.414062 C 32.640625 47.414062 32.628906 47.421875 32.628906 47.429688 C 32.625 47.441406 32.632812 47.449219 32.644531 47.453125 Z M 39.707031 47.773438 C 39.703125 47.765625 39.695312 47.765625 39.6875 47.769531 C 39.683594 47.769531 39.679688 47.777344 39.675781 47.78125 L 39.671875 54.285156 C 39.671875 54.292969 39.679688 54.304688 39.6875 54.304688 C 39.699219 54.304688 39.707031 54.296875 39.707031 54.289062 L 40.878906 49.066406 C 40.886719 49.027344 40.878906 48.996094 40.851562 48.972656 Z M 39.707031 47.773438 "/>
</g>
</svg>
