<?xml version="1.0" encoding="UTF-8" standalone="no"?>
<!DOCTYPE svg PUBLIC "-//W3C//DTD SVG 1.1//EN" "http://www.w3.org/Graphics/SVG/1.1/DTD/svg11.dtd">
<svg xmlns="http://www.w3.org/2000/svg" version="1.1" viewBox="0.00 0.00 61.00 61.00" width="61.00" height="61.00">
<path fill="#ffa500" d="
  M 40.11 12.56
  C 39.57 9.93 38.84 8.93 36.85 7.32
  Q 36.44 6.99 36.88 6.71
  Q 39.83 4.83 39.99 1.28
  A 0.41 0.41 0.0 0 1 40.81 1.24
  Q 41.30 4.77 44.22 6.62
  Q 44.82 7.00 44.21 7.36
  C 41.75 8.83 41.67 10.16 40.65 12.61
  Q 40.29 13.46 40.11 12.56
  Z"
/>
<path fill="#ffa500" d="
  M 12.01 31.34
  C 23.86 28.09 28.31 13.44 28.79 2.83
  Q 28.79 2.68 28.93 2.73
  Q 29.05 2.77 29.17 2.81
  Q 29.25 2.83 29.26 2.92
  C 29.65 13.87 35.06 29.51 47.81 31.11
  A 0.22 0.22 0.0 0 1 47.82 31.54
  C 35.30 33.74 29.70 48.32 29.27 59.87
  Q 29.26 60.09 29.06 60.02
  Q 28.93 59.98 28.80 59.93
  Q 28.70 59.90 28.70 59.80
  C 28.35 49.35 23.44 34.95 12.01 31.96
  A 0.32 0.32 0.0 0 1 12.01 31.34
  Z"
/>
<path fill="#ffa500" d="
  M 44.87 17.08
  Q 46.64 15.24 46.70 12.73
  A 0.38 0.38 0.0 0 1 47.46 12.67
  Q 48.02 16.06 50.83 18.00
  Q 51.37 18.38 50.85 18.79
  L 49.23 20.07
  Q 48.78 20.42 48.58 20.97
  L 47.34 24.39
  A 0.32 0.31 53.1 0 1 46.73 24.30
  Q 46.49 20.76 43.65 18.77
  A 0.51 0.51 0.0 0 1 43.70 17.91
  L 43.96 17.77
  Q 44.47 17.50 44.87 17.08
  Z"
/>
</svg>
