<?xml version="1.0" encoding="UTF-8"?>
<svg xmlns="http://www.w3.org/2000/svg" xmlns:xlink="http://www.w3.org/1999/xlink" width="60px" height="60px" viewBox="0 0 60 60" version="1.1">
<g id="surface1">
<path style="fill:none;stroke-width:2;stroke-linecap:butt;stroke-linejoin:miter;stroke:rgb(50.196078%,47.058824%,0%);stroke-opacity:1;stroke-miterlimit:4;" d="M 575.224609 442.516276 C 574.970703 442.600911 574.759115 442.431641 574.632161 441.966146 " transform="matrix(0.0923077,0,0,0.0923077,0,0)"/>
<path style=" stroke:none;fill-rule:nonzero;fill:rgb(0%,0%,0%);fill-opacity:1;" d="M 30.347656 2.144531 C 30.355469 2.148438 30.363281 2.15625 30.363281 2.167969 C 30.378906 3.195312 30.394531 4.21875 30.414062 5.246094 C 30.417969 5.441406 30.480469 5.648438 30.480469 5.863281 C 30.492188 6.734375 30.554688 7.941406 30.671875 9.484375 C 30.917969 12.714844 31.28125 15.636719 32.125 18.601562 C 32.914062 21.382812 34.453125 24.113281 36.824219 25.832031 C 40.886719 28.773438 45.96875 29.179688 50.785156 29.671875 C 51.1875 29.710938 51.621094 29.695312 51.992188 29.730469 C 54.121094 29.914062 56.253906 29.914062 58.386719 29.996094 C 58.433594 30 58.445312 30.019531 58.429688 30.058594 L 58.410156 30.109375 C 58.402344 30.132812 58.382812 30.148438 58.355469 30.152344 C 57.253906 30.203125 56.210938 30.203125 55.046875 30.253906 C 53.570312 30.320312 52.300781 30.351562 50.589844 30.503906 C 43.636719 31.121094 36.054688 32.058594 32.925781 39.363281 C 31.582031 42.492188 31.113281 45.804688 30.777344 49.378906 C 30.734375 49.835938 30.707031 50.175781 30.695312 50.398438 C 30.6875 50.554688 30.671875 50.703125 30.644531 50.847656 C 30.5625 51.304688 30.609375 51.792969 30.566406 52.257812 C 30.527344 52.648438 30.507812 52.96875 30.503906 53.207031 C 30.496094 54.023438 30.414062 54.90625 30.402344 55.648438 C 30.375 56.988281 30.351562 58.335938 30.292969 59.675781 C 30.292969 59.734375 30.261719 59.769531 30.25 59.828125 C 30.242188 59.847656 30.222656 59.859375 30.203125 59.855469 C 30.183594 59.855469 30.167969 59.835938 30.167969 59.816406 C 30.144531 57.867188 30.148438 55.933594 30.050781 54 C 29.824219 49.632812 29.527344 45.300781 28.257812 41.144531 C 27.503906 38.679688 26.164062 36.398438 24.25 34.761719 C 21.511719 32.421875 17.75 31.472656 14.257812 30.984375 C 10.328125 30.429688 6.402344 30.253906 2.4375 30.164062 C 2.4375 30.164062 2.414062 30.167969 2.375 30.171875 C 2.328125 30.175781 2.285156 30.15625 2.246094 30.113281 C 2.222656 30.089844 2.21875 30.054688 2.230469 30.027344 C 2.246094 29.996094 2.273438 29.976562 2.304688 29.976562 C 3.617188 29.941406 4.941406 29.910156 6.277344 29.882812 C 6.761719 29.871094 7.285156 29.796875 7.722656 29.78125 C 9.84375 29.691406 11.957031 29.496094 14.058594 29.199219 C 19.105469 28.488281 24.078125 26.972656 26.796875 22.324219 C 28.121094 20.066406 28.804688 17.453125 29.242188 14.675781 C 29.996094 9.914062 30.128906 5.097656 30.164062 0.300781 C 30.164062 0.25 30.179688 0.214844 30.210938 0.195312 C 30.257812 0.160156 30.28125 0.171875 30.285156 0.230469 L 30.335938 2.128906 C 30.335938 2.136719 30.339844 2.140625 30.347656 2.144531 Z M 27.035156 34.707031 C 28.496094 36.421875 29.394531 38.316406 30.152344 40.425781 C 30.160156 40.441406 30.167969 40.457031 30.179688 40.464844 C 30.199219 40.484375 30.214844 40.492188 30.21875 40.5 C 30.242188 40.515625 30.269531 40.519531 30.292969 40.511719 C 30.320312 40.503906 30.339844 40.484375 30.347656 40.460938 C 31.914062 35.765625 34.695312 32.464844 39.34375 30.652344 C 39.777344 30.480469 40.214844 30.320312 40.648438 30.160156 C 40.679688 30.148438 40.703125 30.121094 40.707031 30.085938 C 40.710938 30.054688 40.695312 30.023438 40.667969 30.003906 C 40.632812 29.976562 40.585938 29.957031 40.523438 29.9375 C 35.363281 28.289062 32.050781 24.851562 30.347656 19.679688 C 30.332031 19.632812 30.289062 19.601562 30.238281 19.601562 C 30.191406 19.601562 30.148438 19.632812 30.132812 19.679688 C 28.519531 24.925781 25.058594 28.257812 19.855469 29.972656 C 19.835938 29.980469 19.820312 29.996094 19.8125 30.015625 C 19.804688 30.039062 19.804688 30.0625 19.816406 30.082031 L 19.851562 30.136719 C 19.863281 30.160156 19.886719 30.179688 19.914062 30.1875 C 22.664062 31.140625 25.128906 32.464844 27.035156 34.707031 Z M 27.035156 34.707031 "/>
<path style=" stroke:none;fill-rule:nonzero;fill:rgb(100%,93.72549%,0%);fill-opacity:1;" d="M 19.949219 10.542969 C 19.3125 10.652344 18.574219 10.550781 18.347656 11.332031 C 18.261719 11.632812 18.21875 12.039062 18.226562 12.546875 C 18.230469 12.570312 18.21875 12.574219 18.199219 12.558594 C 18.035156 12.417969 18.242188 11.304688 17.753906 10.875 C 17.367188 10.535156 16.445312 10.53125 15.9375 10.546875 C 15.921875 10.546875 15.917969 10.542969 15.921875 10.527344 C 15.921875 10.519531 15.925781 10.511719 15.929688 10.503906 C 15.929688 10.503906 15.933594 10.5 15.941406 10.5 C 16.328125 10.5 16.746094 10.464844 17.191406 10.402344 C 18.140625 10.265625 18.15625 9.378906 18.160156 8.5 C 18.160156 8.492188 18.167969 8.488281 18.175781 8.488281 C 18.1875 8.492188 18.195312 8.496094 18.203125 8.5 C 18.210938 8.5 18.214844 8.507812 18.214844 8.511719 C 18.238281 8.964844 18.246094 9.671875 18.503906 10.019531 C 18.820312 10.4375 19.429688 10.457031 19.945312 10.5 C 20.050781 10.511719 20.050781 10.523438 19.949219 10.542969 Z M 19.949219 10.542969 "/>
<path style=" stroke:none;fill-rule:nonzero;fill:rgb(100%,93.72549%,0%);fill-opacity:1;" d="M 16.152344 17.136719 C 17.324219 17.195312 18.296875 17.246094 19.542969 17.238281 C 19.5625 17.238281 19.566406 17.246094 19.554688 17.261719 C 19.546875 17.273438 19.539062 17.277344 19.523438 17.277344 C 18.039062 17.308594 16.570312 17.292969 15.09375 17.496094 C 12.8125 17.8125 11.792969 18.9375 11.550781 21.222656 C 11.417969 22.480469 11.359375 23.683594 11.382812 24.832031 C 11.382812 24.878906 11.375 24.914062 11.351562 24.941406 C 11.347656 24.945312 11.34375 24.945312 11.339844 24.945312 C 11.335938 24.941406 11.332031 24.941406 11.332031 24.933594 C 11.320312 23.929688 11.285156 22.925781 11.226562 21.921875 C 11.171875 20.914062 10.964844 20.03125 10.613281 19.273438 C 9.964844 17.894531 8.230469 17.492188 6.742188 17.390625 C 5.546875 17.308594 4.460938 17.273438 3.484375 17.289062 C 3.441406 17.289062 3.410156 17.28125 3.382812 17.269531 C 3.378906 17.265625 3.378906 17.261719 3.378906 17.257812 C 3.378906 17.253906 3.382812 17.253906 3.386719 17.253906 C 3.855469 17.246094 4.8125 17.210938 6.253906 17.140625 C 8.378906 17.039062 10.378906 16.699219 10.941406 14.316406 C 11.304688 12.769531 11.300781 11.398438 11.332031 9.488281 C 11.332031 9.476562 11.339844 9.46875 11.351562 9.464844 C 11.363281 9.464844 11.371094 9.472656 11.375 9.484375 C 11.378906 9.507812 11.382812 9.539062 11.382812 9.578125 C 11.371094 10.734375 11.417969 11.886719 11.523438 13.039062 C 11.679688 14.773438 12.234375 16.296875 14.078125 16.796875 C 14.785156 16.988281 15.476562 17.101562 16.152344 17.136719 Z M 16.152344 17.136719 "/>
<path style=" stroke:none;fill-rule:nonzero;fill:rgb(100%,93.72549%,0%);fill-opacity:1;" d="M 18.097656 21.808594 C 18.082031 21.808594 18.070312 21.796875 18.070312 21.78125 C 18.070312 21.769531 18.082031 21.757812 18.097656 21.757812 C 18.578125 21.75 19.371094 21.683594 19.71875 21.621094 C 21.191406 21.355469 21.113281 19.914062 21.199219 18.726562 C 21.199219 18.722656 21.199219 18.722656 21.203125 18.722656 C 21.207031 18.722656 21.214844 18.722656 21.226562 18.722656 C 21.230469 18.722656 21.234375 18.722656 21.234375 18.730469 C 21.234375 19.957031 21.257812 21.421875 22.769531 21.628906 C 23.234375 21.691406 23.832031 21.734375 24.570312 21.761719 C 24.570312 21.773438 24.570312 21.78125 24.570312 21.785156 C 24.570312 21.792969 24.570312 21.796875 24.5625 21.792969 C 23.667969 21.785156 23.011719 21.835938 22.589844 21.941406 C 21.242188 22.277344 21.230469 23.628906 21.234375 24.75 C 21.234375 24.761719 21.226562 24.769531 21.214844 24.761719 C 21.207031 24.761719 21.199219 24.757812 21.191406 24.757812 C 21.1875 24.753906 21.1875 24.75 21.1875 24.746094 C 21.175781 24.351562 21.144531 23.964844 21.089844 23.578125 C 20.851562 21.835938 19.660156 21.796875 18.097656 21.808594 Z M 18.097656 21.808594 "/>
<path style=" stroke:none;fill-rule:nonzero;fill:rgb(100%,93.72549%,0%);fill-opacity:1;" d="M 46.742188 36.867188 C 46.582031 35.816406 45.4375 35.867188 44.640625 35.859375 C 44.628906 35.859375 44.617188 35.851562 44.617188 35.839844 C 44.617188 35.828125 44.625 35.816406 44.636719 35.816406 C 44.65625 35.8125 44.675781 35.8125 44.699219 35.8125 C 46.128906 35.871094 46.847656 35.644531 46.820312 33.996094 C 46.816406 33.8125 46.832031 33.808594 46.863281 33.992188 C 46.925781 34.339844 46.882812 34.746094 47 35.054688 C 47.304688 35.863281 48.109375 35.785156 48.832031 35.800781 C 49.082031 35.808594 49.085938 35.824219 48.832031 35.847656 C 48.546875 35.875 48.214844 35.914062 47.84375 35.972656 C 46.851562 36.125 46.921875 37.003906 46.867188 37.765625 C 46.867188 37.769531 46.863281 37.773438 46.863281 37.773438 C 46.855469 37.777344 46.84375 37.777344 46.839844 37.777344 C 46.832031 37.773438 46.828125 37.769531 46.828125 37.761719 C 46.816406 37.460938 46.789062 37.164062 46.742188 36.867188 Z M 46.742188 36.867188 "/>
<path style=" stroke:none;fill-rule:nonzero;fill:rgb(100%,93.72549%,0%);fill-opacity:1;" d="M 34.191406 41.414062 C 34.160156 41.414062 34.152344 41.402344 34.179688 41.378906 C 34.207031 41.351562 34.246094 41.339844 34.292969 41.351562 C 34.34375 41.359375 34.378906 41.363281 34.398438 41.363281 C 36.058594 41.3125 37.933594 41.335938 39.457031 40.75 C 40.988281 40.164062 41.441406 38.488281 41.558594 37.015625 C 41.640625 35.992188 41.6875 34.964844 41.695312 33.9375 C 41.695312 33.921875 41.703125 33.917969 41.71875 33.921875 C 41.726562 33.925781 41.734375 33.925781 41.742188 33.929688 C 41.75 33.933594 41.753906 33.9375 41.753906 33.945312 C 41.75 35.054688 41.792969 36.117188 41.882812 37.128906 C 42 38.378906 42.355469 39.789062 43.480469 40.496094 C 44.382812 41.066406 45.78125 41.222656 46.863281 41.273438 C 47.867188 41.324219 48.875 41.359375 49.878906 41.382812 C 49.882812 41.382812 49.886719 41.382812 49.886719 41.390625 C 49.886719 41.390625 49.886719 41.390625 49.886719 41.394531 C 49.886719 41.394531 49.886719 41.394531 49.882812 41.394531 C 48.238281 41.414062 46.578125 41.390625 44.953125 41.703125 C 42.855469 42.109375 42.136719 43.417969 41.925781 45.394531 C 41.785156 46.722656 41.726562 47.9375 41.75 49.039062 C 41.75 49.09375 41.75 49.140625 41.746094 49.175781 C 41.742188 49.183594 41.734375 49.191406 41.722656 49.191406 C 41.710938 49.191406 41.703125 49.183594 41.703125 49.171875 C 41.695312 48.109375 41.65625 47.050781 41.585938 45.992188 C 41.476562 44.410156 41.042969 42.492188 39.316406 41.9375 C 37.652344 41.402344 35.9375 41.425781 34.191406 41.414062 Z M 34.191406 41.414062 "/>
<path style=" stroke:none;fill-rule:nonzero;fill:rgb(0%,0%,0%);fill-opacity:1;" d="M 53.097656 40.847656 C 53.074219 40.855469 53.054688 40.839844 53.042969 40.796875 L 53.054688 40.507812 C 53.054688 40.507812 53.058594 40.503906 53.058594 40.503906 C 53.070312 40.5 53.078125 40.5 53.082031 40.5 C 53.089844 40.503906 53.089844 40.507812 53.089844 40.515625 Z M 53.097656 40.847656 "/>
<path style=" stroke:none;fill-rule:nonzero;fill:rgb(100%,93.72549%,0%);fill-opacity:1;" d="M 53.042969 40.796875 C 53.054688 40.839844 53.074219 40.855469 53.097656 40.847656 C 53.113281 42.140625 53.230469 43.410156 54.789062 43.5625 C 55.425781 43.625 55.949219 43.648438 56.359375 43.636719 C 56.378906 43.636719 56.398438 43.640625 56.414062 43.65625 C 56.425781 43.664062 56.4375 43.667969 56.449219 43.671875 C 56.457031 43.671875 56.457031 43.675781 56.449219 43.675781 C 55.902344 43.707031 55.355469 43.75 54.808594 43.804688 C 54.050781 43.886719 53.492188 44.195312 53.292969 44.945312 C 53.128906 45.554688 53.070312 46.175781 53.109375 46.804688 C 53.109375 46.8125 53.109375 46.820312 53.101562 46.824219 C 53.097656 46.828125 53.089844 46.828125 53.085938 46.824219 C 53.074219 46.824219 53.066406 46.820312 53.058594 46.816406 C 53.050781 46.816406 53.050781 46.8125 53.050781 46.804688 C 53.042969 46.097656 53.019531 45.0625 52.648438 44.5 C 52.230469 43.875 51.625 43.832031 50.847656 43.757812 C 50.554688 43.726562 50.269531 43.710938 49.988281 43.703125 C 49.550781 43.691406 49.550781 43.679688 49.984375 43.660156 C 51.398438 43.605469 52.808594 43.667969 52.964844 41.839844 C 53.007812 41.304688 53.035156 40.957031 53.042969 40.796875 Z M 53.042969 40.796875 "/>
</g>
</svg>
