<?xml version="1.0" encoding="UTF-8" standalone="no"?>
<!DOCTYPE svg PUBLIC "-//W3C//DTD SVG 1.1//EN" "http://www.w3.org/Graphics/SVG/1.1/DTD/svg11.dtd">
<svg xmlns="http://www.w3.org/2000/svg" version="1.1" viewBox="0.00 0.00 500.00 500.00" width="500.00" height="500.00">
<g stroke-width="2.00" fill="none" stroke-linecap="butt">
<path stroke="#807800" vector-effect="non-scaling-stroke" d="
  M 155.50 99.79
  L 155.51 100.29"
/>
<path stroke="#807800" vector-effect="non-scaling-stroke" d="
  M 142.47 151.79
  Q 143.93 152.13 143.24 152.46"
/>
<path stroke="#807800" vector-effect="non-scaling-stroke" d="
  M 140.00 187.21
  L 140.00 186.77"
/>
<path stroke="#807800" vector-effect="non-scaling-stroke" d="
  M 324.36 283.45
  L 323.70 283.76"
/>
<path stroke="#807800" vector-effect="non-scaling-stroke" d="
  M 324.31 390.28
  Q 323.85 390.53 323.51 388.98"
/>
<path stroke="#807800" vector-effect="non-scaling-stroke" d="
  M 268.22 339.34
  Q 268.41 338.85 268.76 338.60"
/>
<path stroke="#807800" vector-effect="non-scaling-stroke" d="
  M 411.49 335.95
  Q 411.05 336.50 410.79 337.54"
/>
<path stroke="#807800" vector-effect="non-scaling-stroke" d="
  M 431.99 356.27
  Q 432.34 356.62 431.98 356.99"
/>
<path stroke="#807800" vector-effect="non-scaling-stroke" d="
  M 411.50 376.53
  Q 411.06 376.76 410.80 375.21"
/>
</g>
<path fill="#000000" d="
  M 109.27 257.78
  C 80.17 254.06 49.02 252.36 19.66 252.08
  Q 19.19 252.07 18.93 251.86
  Q 18.57 251.57 18.49 251.20
  A 0.61 0.61 0.0 0 1 19.08 250.45
  Q 51.29 250.23 83.50 247.55
  C 107.24 245.58 132.53 241.84 155.34 233.96
  C 211.33 214.60 225.29 162.33 230.41 109.24
  Q 234.65 65.21 234.43 20.54
  A 0.40 0.40 0.0 0 1 235.21 20.42
  Q 235.34 20.82 235.35 21.50
  Q 236.26 63.22 237.74 85.50
  C 241.56 142.96 249.36 209.74 312.21 232.92
  C 332.39 240.37 355.19 244.37 376.25 246.52
  Q 409.66 249.94 443.25 250.25
  Q 448.02 250.30 452.91 250.81
  A 0.42 0.41 35.2 0 1 453.05 251.60
  L 452.39 251.91
  Q 452.00 252.10 451.56 252.10
  C 422.52 252.23 393.51 253.90 364.70 257.52
  C 316.42 263.58 272.26 278.40 253.74 328.23
  Q 245.98 349.10 242.75 371.20
  C 237.43 407.63 236.05 444.17 235.41 480.93
  A 0.47 0.46 0.6 0 1 234.93 481.39
  Q 234.40 481.39 234.40 481.00
  Q 234.39 454.85 233.25 432.54
  C 231.61 400.30 229.13 368.15 219.74 337.06
  C 210.82 307.50 192.19 284.47 163.69 272.03
  Q 140.04 261.71 109.27 257.78
  Z
  M 234.32 170.69
  C 222.01 210.14 194.78 238.65 154.82 250.26
  A 0.91 0.91 0.0 0 0 154.78 252.00
  Q 162.45 254.66 169.90 257.93
  C 202.46 272.22 223.80 297.62 234.21 331.57
  A 0.90 0.90 0.0 0 0 235.93 331.57
  C 246.26 298.64 266.32 273.64 297.75 259.08
  Q 306.17 255.19 315.47 251.96
  A 0.76 0.76 0.0 0 0 315.46 250.52
  C 274.75 237.26 248.86 211.46 235.85 170.69
  A 0.80 0.80 0.0 0 0 234.32 170.69
  Z"
/>
<path fill="#ffef00" d="
  M 155.50 99.79
  L 155.51 100.29
  C 143.69 101.24 142.66 103.92 142.22 114.99
  Q 142.21 115.24 142.03 115.25
  Q 141.98 115.25 141.93 115.24
  Q 141.83 115.21 141.82 115.07
  C 141.31 109.22 141.77 103.93 136.25 101.53
  Q 132.94 100.08 124.58 100.23
  Q 124.42 100.23 124.47 100.08
  Q 124.52 99.95 124.56 99.81
  Q 124.57 99.79 124.69 99.79
  C 137.94 99.82 140.88 99.12 141.80 85.21
  Q 141.83 84.74 142.10 85.12
  Q 142.25 85.33 142.25 85.50
  C 142.50 96.46 144.06 99.32 155.50 99.79
  Z"
/>
<path fill="#ffef00" d="
  M 142.47 151.79
  Q 143.93 152.13 143.24 152.46
  Q 136.66 152.49 123.94 153.45
  C 110.13 154.51 96.95 157.94 92.72 172.74
  C 89.55 183.85 89.26 195.34 89.28 210.46
  C 89.28 210.74 89.16 211.04 88.99 211.24
  Q 88.79 211.49 88.78 211.16
  C 88.73 199.16 88.63 186.19 85.80 174.48
  C 80.08 150.83 52.26 153.18 33.73 152.29
  Q 33.37 152.27 33.67 152.07
  Q 34.41 151.59 34.74 151.61
  Q 51.52 152.35 66.23 149.21
  C 81.23 146.00 85.32 134.98 87.50 121.25
  Q 88.60 114.32 88.79 92.92
  A 0.28 0.28 0.0 0 1 88.94 92.67
  L 89.18 92.54
  A 0.02 0.02 0.0 0 1 89.21 92.56
  Q 89.26 96.43 89.76 111.49
  C 90.27 126.61 92.52 143.32 109.28 148.38
  C 120.00 151.62 131.38 151.70 142.47 151.79
  Z"
/>
<path fill="#000000" d="
  M 155.50 99.79
  L 159.19 99.78
  Q 159.53 99.78 159.37 100.02
  Q 159.34 100.07 159.29 100.12
  Q 159.21 100.21 159.06 100.21
  L 155.51 100.29
  L 155.50 99.79
  Z"
/>
<path fill="#000000" d="
  M 142.47 151.79
  C 143.36 151.76 148.10 151.32 149.93 152.01
  Q 150.44 152.21 149.84 152.23
  L 143.24 152.46
  Q 143.93 152.13 142.47 151.79
  Z"
/>
<path fill="#ffef00" d="
  M 140.00 187.21
  L 140.00 186.77
  C 159.93 186.92 164.33 184.40 164.74 163.75
  Q 164.74 163.52 164.91 163.40
  Q 165.25 163.17 165.26 163.59
  C 165.59 182.72 169.73 187.22 189.37 186.73
  Q 189.59 186.72 189.52 186.94
  Q 189.48 187.07 189.44 187.19
  Q 189.41 187.29 189.31 187.29
  C 179.59 187.52 168.15 186.94 166.28 199.48
  C 166.10 200.64 165.04 211.11 165.02 211.12
  Q 164.72 211.32 164.73 210.96
  C 165.29 190.32 159.41 187.37 140.00 187.21
  Z"
/>
<path fill="#000000" d="
  M 140.00 186.77
  L 140.00 187.21
  Q 138.79 187.45 137.94 187.10
  Q 137.16 186.76 138.01 186.76
  L 140.00 186.77
  Z"
/>
<path fill="#000000" d="
  M 324.36 283.45
  L 323.70 283.76
  L 323.77 279.11
  Q 323.81 276.23 324.11 279.09
  Q 324.26 280.54 324.36 283.45
  Z"
/>
<path fill="#ffef00" d="
  M 363.41 281.98
  C 363.86 284.99 363.78 288.42 364.98 290.77
  C 367.52 295.71 374.16 295.74 379.32 295.78
  A 0.29 0.29 0.0 0 1 379.58 295.94
  L 379.71 296.19
  A 0.04 0.04 0.0 0 1 379.68 296.25
  C 367.62 296.24 363.85 297.48 363.47 310.41
  Q 363.46 310.57 363.31 310.52
  Q 363.17 310.47 363.03 310.43
  Q 362.92 310.39 362.92 310.28
  C 362.79 307.19 362.90 302.72 361.26 300.12
  C 358.84 296.28 352.16 296.11 347.25 296.25
  Q 347.04 296.26 346.84 296.09
  Q 346.44 295.76 346.96 295.77
  Q 351.99 295.82 356.86 294.69
  C 363.14 293.24 362.67 286.66 362.82 282.02
  A 0.30 0.30 0.0 0 1 363.41 281.98
  Z"
/>
<path fill="#ffef00" d="
  M 324.36 283.45
  Q 323.49 301.67 326.95 316.75
  C 330.60 332.67 345.37 336.61 359.50 337.46
  Q 379.59 338.66 386.33 338.83
  Q 386.44 338.83 386.44 338.95
  Q 386.44 338.98 386.44 339.00
  Q 386.44 339.06 386.39 339.06
  C 373.73 339.20 360.93 338.76 348.44 341.10
  Q 329.83 344.58 326.34 363.31
  Q 323.86 376.61 324.31 390.28
  Q 323.85 390.53 323.51 388.98
  Q 323.17 375.69 321.48 365.01
  C 319.78 354.25 314.16 345.51 303.33 342.37
  C 292.15 339.12 279.82 338.81 268.22 339.34
  Q 268.41 338.85 268.76 338.60
  C 279.80 338.05 291.47 338.06 302.19 335.19
  C 316.49 331.37 320.35 320.63 322.24 307.25
  Q 323.10 301.16 323.70 283.76
  L 324.36 283.45
  Z"
/>
<path fill="#000000" d="
  M 411.49 335.95
  Q 411.05 336.50 410.79 337.54
  Q 410.59 335.81 411.05 334.25
  Q 411.25 333.58 411.44 334.25
  Q 411.66 334.98 411.49 335.95
  Z"
/>
<path fill="#ffef00" d="
  M 411.49 335.95
  C 412.68 345.08 412.40 354.14 424.27 355.41
  Q 428.14 355.82 431.99 356.27
  Q 432.34 356.62 431.98 356.99
  C 429.23 356.92 425.74 357.27 423.71 357.52
  C 412.85 358.87 412.65 367.71 411.50 376.53
  Q 411.06 376.76 410.80 375.21
  C 411.36 357.74 401.91 357.34 388.11 356.74
  Q 388.05 356.74 388.03 356.68
  Q 387.98 356.54 388.01 356.43
  Q 388.04 356.32 388.15 356.31
  C 402.58 355.21 411.23 355.30 410.79 337.54
  Q 411.05 336.50 411.49 335.95
  Z"
/>
<path fill="#000000" d="
  M 268.76 338.60
  Q 268.41 338.85 268.22 339.34
  L 261.15 338.91
  Q 261.07 338.91 261.06 338.82
  Q 261.06 338.81 261.06 338.78
  Q 261.06 338.74 261.10 338.73
  L 268.76 338.60
  Z"
/>
<path fill="#000000" d="
  M 431.99 356.27
  L 434.47 356.51
  Q 435.25 356.59 434.47 356.69
  L 431.98 356.99
  Q 432.34 356.62 431.99 356.27
  Z"
/>
<path fill="#ffffff" d="
  M 217.31 368.60
  C 216.11 395.33 172.71 393.97 172.72 368.53
  Q 172.72 368.00 173.26 368.00
  L 183.49 368.00
  A 0.51 0.51 0.0 0 1 184.00 368.50
  C 184.08 375.62 188.81 379.01 195.55 378.96
  Q 204.80 378.89 206.31 368.55
  Q 206.39 368.00 206.95 368.00
  L 216.74 368.00
  Q 217.34 368.00 217.31 368.60
  Z"
/>
<path fill="#ffffff" d="
  M 57.77 447.51
  L 70.21 447.70
  Q 70.83 447.71 70.80 448.33
  C 69.98 471.21 55.65 486.27 31.74 483.78
  C 22.13 482.78 14.45 478.09 8.91 469.99
  C -1.40 454.93 0.11 437.31 0.32 418.24
  C 0.55 398.81 6.96 377.41 28.84 372.93
  C 53.82 367.80 70.57 383.42 70.79 408.20
  Q 70.80 408.75 70.25 408.75
  L 57.51 408.75
  A 0.55 0.55 0.0 0 1 56.96 408.22
  Q 56.72 401.57 54.56 395.23
  C 50.29 382.75 33.97 381.22 24.84 387.95
  C 17.62 393.26 14.66 403.55 14.38 412.43
  Q 13.84 429.52 14.38 443.81
  C 14.95 459.10 22.35 474.74 40.67 471.68
  C 53.08 469.61 56.37 459.96 56.97 448.27
  A 0.80 0.79 -88.1 0 1 57.77 447.51
  Z"
/>
<path fill="#ffffff" d="
  M 500.00 442.60
  L 500.00 458.85
  Q 496.27 475.48 482.00 480.18
  Q 476.72 481.93 463.12 481.99
  Q 450.73 482.06 438.23 481.97
  Q 437.75 481.97 437.75 481.49
  L 437.75 373.74
  Q 437.75 373.07 438.43 373.06
  Q 453.54 372.86 468.76 373.04
  C 486.73 373.24 497.28 380.76 498.61 399.33
  Q 499.75 415.17 485.30 424.03
  Q 484.89 424.28 485.33 424.46
  Q 497.01 429.34 500.00 442.60
  Z
  M 483.89 394.68
  C 480.56 381.97 461.68 384.80 452.11 385.10
  Q 451.51 385.12 451.51 385.73
  L 451.49 418.31
  Q 451.48 418.93 452.10 418.95
  Q 460.05 419.10 468.01 419.04
  C 482.17 418.92 487.05 406.76 483.89 394.68
  Z
  M 451.59 431.28
  L 451.39 469.50
  A 0.46 0.46 0.0 0 0 451.85 469.96
  L 470.26 470.06
  A 16.94 16.55 -89.7 0 0 486.90 453.20
  L 486.92 447.94
  A 16.94 16.55 -89.7 0 0 470.46 430.92
  L 452.05 430.82
  A 0.46 0.46 0.0 0 0 451.59 431.28
  Z"
/>
<path fill="#000000" d="
  M 410.80 375.21
  Q 411.06 376.76 411.50 376.53
  L 411.43 379.51
  Q 411.40 380.98 410.99 379.56
  Q 410.43 377.64 410.80 375.21
  Z"
/>
<path fill="#000000" d="
  M 323.51 388.98
  Q 323.85 390.53 324.31 390.28
  Q 324.28 393.01 324.12 395.81
  Q 324.11 396.03 324.00 396.12
  Q 323.81 396.27 323.80 396.03
  L 323.51 388.98
  Z"
/>
<path fill="#ffffff" d="
  M 344.75 482.73
  C 317.76 479.95 314.55 447.40 316.91 427.19
  C 319.20 407.56 332.54 390.76 354.35 394.52
  C 381.81 399.26 383.61 435.14 379.49 455.75
  C 376.04 473.02 362.89 484.60 344.75 482.73
  Z
  M 329.36 444.75
  C 329.84 453.67 333.75 468.17 344.31 470.40
  C 357.93 473.29 365.43 463.33 367.16 451.18
  C 368.66 440.62 369.16 423.26 362.93 413.79
  C 357.71 405.84 347.28 403.73 339.46 408.86
  C 329.03 415.69 328.78 433.98 329.36 444.75
  Z"
/>
<path fill="#ffffff" d="
  M 102.14 443.15
  C 90.12 438.49 86.18 425.68 88.78 413.80
  C 91.34 402.12 100.30 395.56 112.21 395.26
  Q 128.03 394.85 143.82 395.03
  Q 144.50 395.04 144.50 395.72
  L 144.50 481.50
  Q 144.50 482.00 144.00 482.00
  L 131.75 482.00
  A 0.50 0.50 0.0 0 1 131.25 481.50
  L 131.25 447.50
  Q 131.25 447.00 130.75 447.00
  L 115.04 447.00
  Q 114.42 447.00 114.16 447.57
  L 98.66 481.53
  Q 98.45 482.00 97.94 482.00
  L 85.03 482.00
  Q 84.44 482.00 84.69 481.47
  L 102.45 443.95
  A 0.59 0.58 -66.5 0 0 102.14 443.15
  Z
  M 131.25 434.71
  L 131.25 407.33
  A 0.30 0.30 0.0 0 0 130.95 407.03
  L 114.06 407.03
  A 12.55 12.07 -0.0 0 0 101.51 419.10
  L 101.51 422.94
  A 12.55 12.07 0.0 0 0 114.06 435.01
  L 130.95 435.01
  A 0.30 0.30 0.0 0 0 131.25 434.71
  Z"
/>
<path fill="#ffffff" d="
  M 176.76 482.00
  L 164.06 482.00
  A 0.31 0.31 0.0 0 1 163.75 481.69
  L 163.75 395.31
  A 0.31 0.31 0.0 0 1 164.06 395.00
  L 176.69 395.00
  A 0.31 0.31 0.0 0 1 177.00 395.31
  L 177.00 457.27
  A 0.31 0.31 0.0 0 0 177.58 457.42
  L 212.99 395.16
  A 0.31 0.31 0.0 0 1 213.26 395.00
  L 225.94 395.00
  A 0.31 0.31 0.0 0 1 226.25 395.31
  L 226.25 481.69
  A 0.31 0.31 0.0 0 1 225.94 482.00
  L 213.56 482.00
  A 0.31 0.31 0.0 0 1 213.25 481.69
  L 213.22 419.40
  A 0.31 0.31 0.0 0 0 212.64 419.25
  L 177.03 481.84
  A 0.31 0.31 0.0 0 1 176.76 482.00
  Z"
/>
<path fill="#ffffff" d="
  M 288.43 437.18
  C 300.97 441.64 303.81 457.68 299.23 468.21
  C 294.61 478.84 284.71 481.90 273.94 481.97
  Q 260.09 482.07 246.23 481.97
  Q 245.75 481.97 245.75 481.49
  L 245.75 395.51
  Q 245.75 395.03 246.23 395.03
  Q 256.22 394.94 266.16 395.01
  C 277.43 395.08 286.07 395.14 293.33 401.89
  Q 298.82 406.99 299.48 416.23
  Q 300.47 430.08 288.38 436.64
  A 0.30 0.30 0.0 0 0 288.43 437.18
  Z
  M 258.98 407.31
  L 259.02 431.73
  A 0.29 0.29 0.0 0 0 259.31 432.02
  L 273.91 432.00
  A 12.33 11.78 -0.1 0 0 286.22 420.20
  L 286.22 418.76
  A 12.33 11.78 -0.1 0 0 273.87 407.00
  L 259.27 407.02
  A 0.29 0.29 0.0 0 0 258.98 407.31
  Z
  M 258.97 443.21
  L 259.01 469.81
  A 0.22 0.22 0.0 0 0 259.23 470.02
  L 275.44 470.00
  A 12.57 12.54 -0.1 0 0 287.99 457.43
  L 287.99 455.47
  A 12.57 12.54 -0.1 0 0 275.40 442.96
  L 259.19 442.98
  A 0.22 0.22 0.0 0 0 258.97 443.21
  Z"
/>
<rect fill="#ffffff" x="391.50" y="430.00" width="30.80" height="12.00" rx="0.27"/>
</svg>
