<?xml version="1.0" encoding="UTF-8" standalone="no"?>
<!DOCTYPE svg PUBLIC "-//W3C//DTD SVG 1.1//EN" "http://www.w3.org/Graphics/SVG/1.1/DTD/svg11.dtd">
<svg xmlns="http://www.w3.org/2000/svg" version="1.1" viewBox="0.00 0.00 550.00 550.00" width="550.00" height="550.00">
<g stroke-width="2.00" fill="none" stroke-linecap="butt">
<path stroke="#ffd280" vector-effect="non-scaling-stroke" d="
  M 192.49 120.82
  L 166.07 237.29
  Q 165.96 237.80 166.32 238.16
  Q 178.93 251.07 191.66 263.84
  Q 191.90 264.08 192.13 264.19
  A 0.65 0.65 0.0 0 0 193.04 263.60
  L 193.06 121.51"
/>
<path stroke="#ffd280" vector-effect="non-scaling-stroke" d="
  M 346.72 272.14
  L 233.21 246.34
  Q 232.72 246.23 232.36 246.59
  L 206.01 272.49
  A 0.61 0.61 0.0 0 0 206.47 273.53
  Q 208.97 273.39 211.75 273.38
  Q 276.76 273.26 341.78 273.25
  C 344.78 273.24 348.17 274.44 351.67 273.89
  A 0.47 0.47 0.0 0 0 351.75 272.99
  L 350.59 272.57"
/>
<path stroke="#ffd280" vector-effect="non-scaling-stroke" d="
  M 156.84 302.13
  L 183.22 276.25
  A 0.44 0.44 0.0 0 0 182.91 275.49
  Q 115.05 275.52 46.98 275.49
  C 44.46 275.49 41.15 274.61 38.08 275.11
  A 0.35 0.34 -37.4 0 0 37.99 275.76
  C 41.20 277.24 45.01 277.17 47.66 277.78
  Q 102.01 290.17 155.92 302.39
  Q 156.45 302.51 156.84 302.13"
/>
<path stroke="#ffd280" vector-effect="non-scaling-stroke" d="
  M 196.96 428.29
  Q 197.27 428.26 197.55 428.08
  Q 197.98 427.79 197.97 427.28
  Q 197.91 422.60 198.27 421.00
  Q 210.60 366.21 222.99 311.37
  Q 223.11 310.84 222.73 310.45
  L 196.88 283.88
  A 0.48 0.48 0.0 0 0 196.06 284.20
  C 196.02 285.65 196.58 287.67 196.57 288.77
  C 195.99 332.00 196.47 362.96 196.41 419.41
  C 196.40 421.79 195.69 425.00 196.09 427.99"
/>
<path stroke="#ffd280" vector-effect="non-scaling-stroke" d="
  M 353.56 98.60
  L 343.37 144.43
  A 1.20 1.19 -61.5 0 0 343.69 145.53
  L 353.77 155.71
  A 0.32 0.31 22.8 0 0 354.31 155.49
  L 354.45 101.05"
/>
<path stroke="#ffd280" vector-effect="non-scaling-stroke" d="
  M 369.98 149.04
  L 360.04 158.80
  A 0.44 0.43 22.5 0 0 360.35 159.54
  Q 383.77 159.46 407.40 159.51
  C 410.31 159.52 414.23 160.34 417.82 159.90
  Q 418.35 159.84 418.02 159.42
  C 416.32 157.27 412.71 158.04 410.16 157.47
  Q 390.97 153.17 371.37 148.65
  A 1.50 1.49 -60.5 0 0 369.98 149.04"
/>
<path stroke="#ffd280" vector-effect="non-scaling-stroke" d="
  M 296.09 161.74
  L 338.81 171.32
  Q 339.32 171.43 339.69 171.07
  L 350.13 161.09
  A 0.40 0.40 0.0 0 0 349.85 160.41
  L 292.69 160.22"
/>
<path stroke="#ffd280" vector-effect="non-scaling-stroke" d="
  M 366.26 174.39
  L 356.32 164.16
  A 0.34 0.34 0.0 0 0 355.74 164.40
  Q 355.76 190.26 355.75 215.25
  C 355.75 217.31 354.83 219.64 355.02 221.99
  A 0.41 0.41 0.0 0 0 355.76 222.21
  C 357.43 220.08 357.19 217.00 357.63 215.06
  Q 362.06 195.27 366.55 175.41
  A 1.12 1.11 -61.0 0 0 366.26 174.39"
/>
<path stroke="#ffd280" vector-effect="non-scaling-stroke" d="
  M 468.17 216.30
  L 458.51 258.99
  A 2.07 2.05 -61.3 0 0 459.06 260.90
  L 468.66 270.61
  A 0.40 0.40 0.0 0 0 469.35 270.32
  Q 469.17 261.28 469.29 252.16
  C 469.42 241.89 468.84 226.74 469.98 213.96
  A 1.91 1.84 -55.8 0 0 469.82 213.03
  L 469.38 212.07"
/>
<path stroke="#ffd280" vector-effect="non-scaling-stroke" d="
  M 484.81 264.12
  L 475.03 273.76
  A 0.46 0.46 0.0 0 0 475.35 274.54
  Q 500.09 274.46 525.03 274.51
  C 527.33 274.51 530.22 275.35 532.99 274.89
  A 0.41 0.41 0.0 0 0 533.01 274.08
  L 486.21 263.72
  A 1.53 1.52 29.0 0 0 484.81 264.12"
/>
<path stroke="#ffd280" vector-effect="non-scaling-stroke" d="
  M 408.03 275.83
  Q 407.84 276.95 408.50 277.01
  C 410.69 277.22 413.35 277.13 415.79 277.66
  Q 434.81 281.84 453.83 286.30
  Q 454.34 286.42 454.72 286.06
  L 465.11 276.13
  A 0.42 0.42 0.0 0 0 464.82 275.40
  L 411.32 275.38"
/>
<path stroke="#ffd280" vector-effect="non-scaling-stroke" d="
  M 470.69 336.81
  L 471.05 337.87
  A 0.48 0.48 0.0 0 0 471.98 337.73
  C 472.06 335.78 471.85 333.70 472.27 331.80
  Q 476.88 311.09 481.56 290.32
  A 0.89 0.88 29.7 0 0 481.33 289.50
  L 471.33 279.17
  A 0.40 0.40 0.0 0 0 470.64 279.45
  L 470.71 333.73"
/>
<path stroke="#ffd280" vector-effect="non-scaling-stroke" d="
  M 353.20 329.07
  Q 352.96 331.47 352.48 333.69
  Q 348.08 353.99 343.50 374.35
  A 1.51 1.49 -61.1 0 0 343.89 375.73
  L 353.53 385.48
  A 0.42 0.41 22.6 0 0 354.24 385.19
  Q 354.22 360.64 354.43 335.82
  Q 354.46 332.63 355.04 329.51
  Q 355.26 328.29 354.94 328.12
  A 1.20 1.20 0.0 0 0 353.20 329.07"
/>
<path stroke="#ffd280" vector-effect="non-scaling-stroke" d="
  M 413.72 388.17
  L 371.83 378.72
  Q 370.55 378.43 369.61 379.35
  L 360.12 388.65
  A 0.52 0.52 0.0 0 0 360.48 389.54
  Q 384.37 389.46 408.48 389.51
  C 411.30 389.52 415.14 390.35 418.65 389.89
  Q 419.35 389.80 418.88 389.28
  Q 418.14 388.47 416.24 388.73"
/>
<path stroke="#ffd280" vector-effect="non-scaling-stroke" d="
  M 292.93 391.54
  Q 293.39 391.97 293.82 391.96
  Q 297.20 391.91 298.76 392.23
  Q 310.10 394.62 338.83 401.31
  Q 339.33 401.42 339.69 401.07
  L 350.05 391.17
  A 0.35 0.35 0.0 0 0 349.81 390.57
  L 291.63 390.32
  A 0.31 0.31 0.0 0 0 291.53 390.93
  L 292.27 391.16
  Q 292.64 391.27 292.93 391.54"
/>
<path stroke="#ffd280" vector-effect="non-scaling-stroke" d="
  M 356.15 452.48
  Q 356.54 452.23 356.76 451.99
  Q 356.96 451.75 356.96 451.29
  Q 356.93 448.26 357.27 446.75
  Q 361.89 426.10 366.52 405.38
  Q 366.65 404.80 366.24 404.38
  L 356.57 394.44
  Q 355.68 393.53 355.68 394.80
  L 355.63 448.44"
/>
<path stroke="#ffd280" vector-effect="non-scaling-stroke" d="
  M 77.90 328.70
  Q 77.69 328.71 77.52 328.75
  Q 77.03 328.88 77.02 329.38
  C 77.00 331.18 77.08 332.95 76.69 334.72
  Q 72.14 355.10 67.48 375.21
  A 1.68 1.66 29.2 0 0 67.93 376.77
  L 77.78 386.72
  A 0.33 0.33 0.0 0 0 78.34 386.49
  L 78.43 332.09"
/>
<path stroke="#ffd280" vector-effect="non-scaling-stroke" d="
  M 138.42 389.69
  Q 138.13 389.52 137.81 389.28
  A 0.70 0.63 66.6 0 0 137.55 389.16
  Q 116.25 384.53 95.02 379.56
  Q 94.58 379.46 94.26 379.77
  L 84.11 389.63
  A 0.53 0.52 22.8 0 0 84.48 390.53
  Q 108.35 390.43 132.47 390.55
  C 134.49 390.56 137.95 391.29 140.79 391.01
  Q 142.51 390.84 141.02 389.96
  L 139.44 389.01
  A 0.28 0.27 28.7 0 0 139.05 389.12
  L 138.84 389.56
  Q 138.70 389.86 138.42 389.69"
/>
<path stroke="#ffd280" vector-effect="non-scaling-stroke" d="
  M 20.31 392.82
  L 62.90 402.39
  Q 63.37 402.49 63.71 402.16
  L 74.14 392.13
  A 0.41 0.41 0.0 0 0 73.86 391.43
  Q 47.88 391.57 21.84 391.47
  C 20.28 391.47 18.70 390.54 16.74 391.30"
/>
<path stroke="#ffd280" vector-effect="non-scaling-stroke" d="
  M 80.18 453.25
  Q 80.56 453.33 80.81 452.97
  Q 80.97 452.75 80.96 452.35
  Q 80.95 449.36 81.34 447.57
  Q 85.71 427.55 90.54 406.57
  Q 90.70 405.88 90.20 405.36
  L 80.57 395.42
  Q 79.75 394.58 79.75 395.76
  L 79.75 447.98
  Q 79.75 448.42 79.58 448.82
  Q 79.43 449.15 79.52 449.37"
/>
</g>
<path fill="#ffa500" d="
  M 232.47 236.54
  L 388.30 273.77
  A 0.30 0.30 0.0 0 1 388.30 274.35
  L 232.60 312.13
  A 0.30 0.30 0.0 0 0 232.38 312.35
  L 195.15 468.18
  A 0.30 0.30 0.0 0 1 194.57 468.18
  L 156.79 312.48
  A 0.30 0.30 0.0 0 0 156.57 312.26
  L 0.74 275.03
  A 0.30 0.30 0.0 0 1 0.74 274.45
  L 156.44 236.67
  A 0.30 0.30 0.0 0 0 156.66 236.45
  L 193.89 80.62
  A 0.30 0.30 0.0 0 1 194.47 80.62
  L 232.25 236.32
  A 0.30 0.30 0.0 0 0 232.47 236.54
  Z
  M 192.49 120.82
  L 166.07 237.29
  Q 165.96 237.80 166.32 238.16
  Q 178.93 251.07 191.66 263.84
  Q 191.90 264.08 192.13 264.19
  A 0.65 0.65 0.0 0 0 193.04 263.60
  L 193.06 121.51
  Q 193.48 120.30 193.18 119.24
  Q 193.07 118.83 192.81 119.18
  Q 192.12 120.13 192.49 120.82
  Z
  M 350.59 272.57
  Q 348.82 271.95 346.72 272.14
  L 233.21 246.34
  Q 232.72 246.23 232.36 246.59
  L 206.01 272.49
  A 0.61 0.61 0.0 0 0 206.47 273.53
  Q 208.97 273.39 211.75 273.38
  Q 276.76 273.26 341.78 273.25
  C 344.78 273.24 348.17 274.44 351.67 273.89
  A 0.47 0.47 0.0 0 0 351.75 272.99
  L 350.59 272.57
  Z
  M 156.84 302.13
  L 183.22 276.25
  A 0.44 0.44 0.0 0 0 182.91 275.49
  Q 115.05 275.52 46.98 275.49
  C 44.46 275.49 41.15 274.61 38.08 275.11
  A 0.35 0.34 -37.4 0 0 37.99 275.76
  C 41.20 277.24 45.01 277.17 47.66 277.78
  Q 102.01 290.17 155.92 302.39
  Q 156.45 302.51 156.84 302.13
  Z
  M 196.09 427.99
  Q 195.57 428.51 196.11 429.17
  Q 196.52 429.67 196.72 429.05
  L 196.96 428.29
  Q 197.27 428.26 197.55 428.08
  Q 197.98 427.79 197.97 427.28
  Q 197.91 422.60 198.27 421.00
  Q 210.60 366.21 222.99 311.37
  Q 223.11 310.84 222.73 310.45
  L 196.88 283.88
  A 0.48 0.48 0.0 0 0 196.06 284.20
  C 196.02 285.65 196.58 287.67 196.57 288.77
  C 195.99 332.00 196.47 362.96 196.41 419.41
  C 196.40 421.79 195.69 425.00 196.09 427.99
  Z"
/>
<path fill="#ffa500" d="
  M 370.57 144.57
  L 433.54 159.51
  A 0.31 0.31 0.0 0 1 433.54 160.11
  L 370.62 175.28
  A 0.31 0.31 0.0 0 0 370.39 175.51
  L 355.45 238.48
  A 0.31 0.31 0.0 0 1 354.85 238.48
  L 339.68 175.56
  A 0.31 0.31 0.0 0 0 339.45 175.33
  L 276.48 160.39
  A 0.31 0.31 0.0 0 1 276.48 159.79
  L 339.40 144.62
  A 0.31 0.31 0.0 0 0 339.63 144.39
  L 354.57 81.42
  A 0.31 0.31 0.0 0 1 355.17 81.42
  L 370.34 144.34
  A 0.31 0.31 0.0 0 0 370.57 144.57
  Z
  M 353.56 98.60
  L 343.37 144.43
  A 1.20 1.19 -61.5 0 0 343.69 145.53
  L 353.77 155.71
  A 0.32 0.31 22.8 0 0 354.31 155.49
  L 354.45 101.05
  Q 354.86 94.85 353.56 98.60
  Z
  M 369.98 149.04
  L 360.04 158.80
  A 0.44 0.43 22.5 0 0 360.35 159.54
  Q 383.77 159.46 407.40 159.51
  C 410.31 159.52 414.23 160.34 417.82 159.90
  Q 418.35 159.84 418.02 159.42
  C 416.32 157.27 412.71 158.04 410.16 157.47
  Q 390.97 153.17 371.37 148.65
  A 1.50 1.49 -60.5 0 0 369.98 149.04
  Z
  M 292.69 160.22
  L 292.21 160.23
  Q 291.40 160.24 292.03 160.74
  Q 293.74 162.09 296.09 161.74
  L 338.81 171.32
  Q 339.32 171.43 339.69 171.07
  L 350.13 161.09
  A 0.40 0.40 0.0 0 0 349.85 160.41
  L 292.69 160.22
  Z
  M 366.26 174.39
  L 356.32 164.16
  A 0.34 0.34 0.0 0 0 355.74 164.40
  Q 355.76 190.26 355.75 215.25
  C 355.75 217.31 354.83 219.64 355.02 221.99
  A 0.41 0.41 0.0 0 0 355.76 222.21
  C 357.43 220.08 357.19 217.00 357.63 215.06
  Q 362.06 195.27 366.55 175.41
  A 1.12 1.11 -61.0 0 0 366.26 174.39
  Z"
/>
<path fill="#ffffff" d="
  M 353.56 98.60
  Q 354.25 98.89 354.45 101.05
  L 354.31 155.49
  A 0.32 0.31 22.8 0 1 353.77 155.71
  L 343.69 145.53
  A 1.20 1.19 -61.5 0 1 343.37 144.43
  L 353.56 98.60
  Z"
/>
<path fill="#ffffff" d="
  M 192.49 120.82
  Q 193.09 121.10 193.06 121.51
  L 193.04 263.60
  A 0.65 0.65 0.0 0 1 192.13 264.19
  Q 191.90 264.08 191.66 263.84
  Q 178.93 251.07 166.32 238.16
  Q 165.96 237.80 166.07 237.29
  L 192.49 120.82
  Z"
/>
<path fill="#ffffff" d="
  M 369.98 149.04
  A 1.50 1.49 -60.5 0 1 371.37 148.65
  Q 390.97 153.17 410.16 157.47
  C 412.71 158.04 416.32 157.27 418.02 159.42
  Q 418.35 159.84 417.82 159.90
  C 414.23 160.34 410.31 159.52 407.40 159.51
  Q 383.77 159.46 360.35 159.54
  A 0.44 0.43 22.5 0 1 360.04 158.80
  L 369.98 149.04
  Z"
/>
<path fill="#ffffff" d="
  M 296.09 161.74
  Q 295.47 160.93 294.81 161.06
  Q 292.98 161.44 292.69 160.22
  L 349.85 160.41
  A 0.40 0.40 0.0 0 1 350.13 161.09
  L 339.69 171.07
  Q 339.32 171.43 338.81 171.32
  L 296.09 161.74
  Z"
/>
<path fill="#ffffff" d="
  M 366.26 174.39
  A 1.12 1.11 -61.0 0 1 366.55 175.41
  Q 362.06 195.27 357.63 215.06
  C 357.19 217.00 357.43 220.08 355.76 222.21
  A 0.41 0.41 0.0 0 1 355.02 221.99
  C 354.83 219.64 355.75 217.31 355.75 215.25
  Q 355.76 190.26 355.74 164.40
  A 0.34 0.34 0.0 0 1 356.32 164.16
  L 366.26 174.39
  Z"
/>
<path fill="#ffa500" d="
  M 485.56 259.58
  L 548.54 274.49
  A 0.33 0.33 0.0 0 1 548.54 275.13
  L 485.61 290.26
  A 0.33 0.33 0.0 0 0 485.37 290.51
  L 470.46 353.49
  A 0.33 0.33 0.0 0 1 469.82 353.49
  L 454.69 290.56
  A 0.33 0.33 0.0 0 0 454.44 290.32
  L 391.46 275.41
  A 0.33 0.33 0.0 0 1 391.46 274.77
  L 454.39 259.64
  A 0.33 0.33 0.0 0 0 454.63 259.39
  L 469.54 196.41
  A 0.33 0.33 0.0 0 1 470.18 196.41
  L 485.31 259.34
  A 0.33 0.33 0.0 0 0 485.56 259.58
  Z
  M 468.17 216.30
  L 458.51 258.99
  A 2.07 2.05 -61.3 0 0 459.06 260.90
  L 468.66 270.61
  A 0.40 0.40 0.0 0 0 469.35 270.32
  Q 469.17 261.28 469.29 252.16
  C 469.42 241.89 468.84 226.74 469.98 213.96
  A 1.91 1.84 -55.8 0 0 469.82 213.03
  L 469.38 212.07
  Q 467.72 214.32 468.17 216.30
  Z
  M 484.81 264.12
  L 475.03 273.76
  A 0.46 0.46 0.0 0 0 475.35 274.54
  Q 500.09 274.46 525.03 274.51
  C 527.33 274.51 530.22 275.35 532.99 274.89
  A 0.41 0.41 0.0 0 0 533.01 274.08
  L 486.21 263.72
  A 1.53 1.52 29.0 0 0 484.81 264.12
  Z
  M 408.03 275.83
  Q 407.84 276.95 408.50 277.01
  C 410.69 277.22 413.35 277.13 415.79 277.66
  Q 434.81 281.84 453.83 286.30
  Q 454.34 286.42 454.72 286.06
  L 465.11 276.13
  A 0.42 0.42 0.0 0 0 464.82 275.40
  L 411.32 275.38
  Q 409.39 274.76 407.22 275.40
  Q 406.81 275.53 407.14 275.80
  Q 407.59 276.18 408.03 275.83
  Z
  M 470.71 333.73
  Q 469.63 335.48 470.69 336.81
  L 471.05 337.87
  A 0.48 0.48 0.0 0 0 471.98 337.73
  C 472.06 335.78 471.85 333.70 472.27 331.80
  Q 476.88 311.09 481.56 290.32
  A 0.89 0.88 29.7 0 0 481.33 289.50
  L 471.33 279.17
  A 0.40 0.40 0.0 0 0 470.64 279.45
  L 470.71 333.73
  Z"
/>
<path fill="#ffffff" d="
  M 469.38 212.07
  L 469.82 213.03
  A 1.91 1.84 -55.8 0 1 469.98 213.96
  C 468.84 226.74 469.42 241.89 469.29 252.16
  Q 469.17 261.28 469.35 270.32
  A 0.40 0.40 0.0 0 1 468.66 270.61
  L 459.06 260.90
  A 2.07 2.05 -61.3 0 1 458.51 258.99
  L 468.17 216.30
  L 468.70 215.57
  Q 468.99 215.18 468.87 214.70
  Q 468.68 213.92 469.38 212.07
  Z"
/>
<path fill="#ffffff" d="
  M 346.72 272.14
  Q 347.67 273.36 350.59 272.57
  L 351.75 272.99
  A 0.47 0.47 0.0 0 1 351.67 273.89
  C 348.17 274.44 344.78 273.24 341.78 273.25
  Q 276.76 273.26 211.75 273.38
  Q 208.97 273.39 206.47 273.53
  A 0.61 0.61 0.0 0 1 206.01 272.49
  L 232.36 246.59
  Q 232.72 246.23 233.21 246.34
  L 346.72 272.14
  Z"
/>
<path fill="#ffffff" d="
  M 484.81 264.12
  A 1.53 1.52 29.0 0 1 486.21 263.72
  L 533.01 274.08
  A 0.41 0.41 0.0 0 1 532.99 274.89
  C 530.22 275.35 527.33 274.51 525.03 274.51
  Q 500.09 274.46 475.35 274.54
  A 0.46 0.46 0.0 0 1 475.03 273.76
  L 484.81 264.12
  Z"
/>
<path fill="#ffffff" d="
  M 156.84 302.13
  Q 156.45 302.51 155.92 302.39
  Q 102.01 290.17 47.66 277.78
  C 45.01 277.17 41.20 277.24 37.99 275.76
  A 0.35 0.34 -37.4 0 1 38.08 275.11
  C 41.15 274.61 44.46 275.49 46.98 275.49
  Q 115.05 275.52 182.91 275.49
  A 0.44 0.44 0.0 0 1 183.22 276.25
  L 156.84 302.13
  Z"
/>
<path fill="#ffffff" d="
  M 411.32 275.38
  L 464.82 275.40
  A 0.42 0.42 0.0 0 1 465.11 276.13
  L 454.72 286.06
  Q 454.34 286.42 453.83 286.30
  Q 434.81 281.84 415.79 277.66
  C 413.35 277.13 410.69 277.22 408.50 277.01
  Q 407.84 276.95 408.03 275.83
  Q 410.45 276.23 411.32 275.38
  Z"
/>
<path fill="#ffffff" d="
  M 470.69 336.81
  L 470.71 333.73
  L 470.64 279.45
  A 0.40 0.40 0.0 0 1 471.33 279.17
  L 481.33 289.50
  A 0.89 0.88 29.7 0 1 481.56 290.32
  Q 476.88 311.09 472.27 331.80
  C 471.85 333.70 472.06 335.78 471.98 337.73
  A 0.48 0.48 0.0 0 1 471.05 337.87
  L 470.69 336.81
  Z"
/>
<path fill="#ffffff" d="
  M 196.96 428.29
  L 196.09 427.99
  C 195.69 425.00 196.40 421.79 196.41 419.41
  C 196.47 362.96 195.99 332.00 196.57 288.77
  C 196.58 287.67 196.02 285.65 196.06 284.20
  A 0.48 0.48 0.0 0 1 196.88 283.88
  L 222.73 310.45
  Q 223.11 310.84 222.99 311.37
  Q 210.60 366.21 198.27 421.00
  Q 197.91 422.60 197.97 427.28
  Q 197.98 427.79 197.55 428.08
  Q 197.27 428.26 196.96 428.29
  Z"
/>
<path fill="#ffa500" d="
  M 370.58 374.57
  L 433.49 389.49
  A 0.33 0.33 0.0 0 1 433.49 390.13
  L 370.63 405.28
  A 0.33 0.33 0.0 0 0 370.39 405.52
  L 355.47 468.43
  A 0.33 0.33 0.0 0 1 354.83 468.43
  L 339.68 405.57
  A 0.33 0.33 0.0 0 0 339.44 405.33
  L 276.53 390.41
  A 0.33 0.33 0.0 0 1 276.53 389.77
  L 339.39 374.62
  A 0.33 0.33 0.0 0 0 339.63 374.38
  L 354.55 311.47
  A 0.33 0.33 0.0 0 1 355.19 311.47
  L 370.34 374.33
  A 0.33 0.33 0.0 0 0 370.58 374.57
  Z
  M 353.20 329.07
  Q 352.96 331.47 352.48 333.69
  Q 348.08 353.99 343.50 374.35
  A 1.51 1.49 -61.1 0 0 343.89 375.73
  L 353.53 385.48
  A 0.42 0.41 22.6 0 0 354.24 385.19
  Q 354.22 360.64 354.43 335.82
  Q 354.46 332.63 355.04 329.51
  Q 355.26 328.29 354.94 328.12
  A 1.20 1.20 0.0 0 0 353.20 329.07
  Z
  M 416.24 388.73
  Q 414.96 387.70 413.72 388.17
  L 371.83 378.72
  Q 370.55 378.43 369.61 379.35
  L 360.12 388.65
  A 0.52 0.52 0.0 0 0 360.48 389.54
  Q 384.37 389.46 408.48 389.51
  C 411.30 389.52 415.14 390.35 418.65 389.89
  Q 419.35 389.80 418.88 389.28
  Q 418.14 388.47 416.24 388.73
  Z
  M 292.93 391.54
  Q 293.39 391.97 293.82 391.96
  Q 297.20 391.91 298.76 392.23
  Q 310.10 394.62 338.83 401.31
  Q 339.33 401.42 339.69 401.07
  L 350.05 391.17
  A 0.35 0.35 0.0 0 0 349.81 390.57
  L 291.63 390.32
  A 0.31 0.31 0.0 0 0 291.53 390.93
  L 292.27 391.16
  Q 292.64 391.27 292.93 391.54
  Z
  M 355.63 448.44
  Q 354.47 451.33 356.15 452.48
  Q 356.54 452.23 356.76 451.99
  Q 356.96 451.75 356.96 451.29
  Q 356.93 448.26 357.27 446.75
  Q 361.89 426.10 366.52 405.38
  Q 366.65 404.80 366.24 404.38
  L 356.57 394.44
  Q 355.68 393.53 355.68 394.80
  L 355.63 448.44
  Z"
/>
<path fill="#ffa500" d="
  M 94.61 375.56
  L 157.53 390.52
  A 0.31 0.31 0.0 0 1 157.53 391.12
  L 94.66 406.31
  A 0.31 0.31 0.0 0 0 94.43 406.54
  L 79.47 469.46
  A 0.31 0.31 0.0 0 1 78.87 469.46
  L 63.68 406.59
  A 0.31 0.31 0.0 0 0 63.45 406.36
  L 0.53 391.40
  A 0.31 0.31 0.0 0 1 0.53 390.80
  L 63.40 375.61
  A 0.31 0.31 0.0 0 0 63.63 375.38
  L 78.59 312.46
  A 0.31 0.31 0.0 0 1 79.19 312.46
  L 94.38 375.33
  A 0.31 0.31 0.0 0 0 94.61 375.56
  Z
  M 77.90 328.70
  Q 77.69 328.71 77.52 328.75
  Q 77.03 328.88 77.02 329.38
  C 77.00 331.18 77.08 332.95 76.69 334.72
  Q 72.14 355.10 67.48 375.21
  A 1.68 1.66 29.2 0 0 67.93 376.77
  L 77.78 386.72
  A 0.33 0.33 0.0 0 0 78.34 386.49
  L 78.43 332.09
  Q 79.21 330.26 78.36 328.45
  Q 78.25 328.21 78.02 328.35
  Q 77.66 328.59 77.90 328.70
  Z
  M 138.42 389.69
  Q 138.13 389.52 137.81 389.28
  A 0.70 0.63 66.6 0 0 137.55 389.16
  Q 116.25 384.53 95.02 379.56
  Q 94.58 379.46 94.26 379.77
  L 84.11 389.63
  A 0.53 0.52 22.8 0 0 84.48 390.53
  Q 108.35 390.43 132.47 390.55
  C 134.49 390.56 137.95 391.29 140.79 391.01
  Q 142.51 390.84 141.02 389.96
  L 139.44 389.01
  A 0.28 0.27 28.7 0 0 139.05 389.12
  L 138.84 389.56
  Q 138.70 389.86 138.42 389.69
  Z
  M 16.74 391.30
  Q 16.26 391.15 15.99 391.26
  Q 15.62 391.41 15.94 391.65
  Q 17.78 393.03 20.31 392.82
  L 62.90 402.39
  Q 63.37 402.49 63.71 402.16
  L 74.14 392.13
  A 0.41 0.41 0.0 0 0 73.86 391.43
  Q 47.88 391.57 21.84 391.47
  C 20.28 391.47 18.70 390.54 16.74 391.30
  Z
  M 79.52 449.37
  Q 78.69 451.85 79.88 453.67
  A 0.19 0.19 0.0 0 0 80.20 453.66
  Q 80.32 453.46 80.18 453.25
  Q 80.56 453.33 80.81 452.97
  Q 80.97 452.75 80.96 452.35
  Q 80.95 449.36 81.34 447.57
  Q 85.71 427.55 90.54 406.57
  Q 90.70 405.88 90.20 405.36
  L 80.57 395.42
  Q 79.75 394.58 79.75 395.76
  L 79.75 447.98
  Q 79.75 448.42 79.58 448.82
  Q 79.43 449.15 79.52 449.37
  Z"
/>
<path fill="#ffffff" d="
  M 353.20 329.07
  A 1.20 1.20 0.0 0 1 354.94 328.12
  Q 355.26 328.29 355.04 329.51
  Q 354.46 332.63 354.43 335.82
  Q 354.22 360.64 354.24 385.19
  A 0.42 0.41 22.6 0 1 353.53 385.48
  L 343.89 375.73
  A 1.51 1.49 -61.1 0 1 343.50 374.35
  Q 348.08 353.99 352.48 333.69
  Q 352.96 331.47 353.20 329.07
  Z"
/>
<path fill="#ffffff" d="
  M 77.90 328.70
  L 78.43 332.09
  L 78.34 386.49
  A 0.33 0.33 0.0 0 1 77.78 386.72
  L 67.93 376.77
  A 1.68 1.66 29.2 0 1 67.48 375.21
  Q 72.14 355.10 76.69 334.72
  C 77.08 332.95 77.00 331.18 77.02 329.38
  Q 77.03 328.88 77.52 328.75
  Q 77.69 328.71 77.90 328.70
  Z"
/>
<path fill="#ffffff" d="
  M 413.72 388.17
  Q 414.70 389.31 416.24 388.73
  Q 418.14 388.47 418.88 389.28
  Q 419.35 389.80 418.65 389.89
  C 415.14 390.35 411.30 389.52 408.48 389.51
  Q 384.37 389.46 360.48 389.54
  A 0.52 0.52 0.0 0 1 360.12 388.65
  L 369.61 379.35
  Q 370.55 378.43 371.83 378.72
  L 413.72 388.17
  Z"
/>
<path fill="#ffffff" d="
  M 138.84 389.56
  L 139.05 389.12
  A 0.28 0.27 28.7 0 1 139.44 389.01
  L 141.02 389.96
  Q 142.51 390.84 140.79 391.01
  C 137.95 391.29 134.49 390.56 132.47 390.55
  Q 108.35 390.43 84.48 390.53
  A 0.53 0.52 22.8 0 1 84.11 389.63
  L 94.26 379.77
  Q 94.58 379.46 95.02 379.56
  Q 116.25 384.53 137.55 389.16
  A 0.70 0.63 66.6 0 1 137.81 389.28
  Q 138.13 389.52 138.42 389.69
  Q 138.70 389.86 138.84 389.56
  Z"
/>
<path fill="#ffffff" d="
  M 292.27 391.16
  L 291.53 390.93
  A 0.31 0.31 0.0 0 1 291.63 390.32
  L 349.81 390.57
  A 0.35 0.35 0.0 0 1 350.05 391.17
  L 339.69 401.07
  Q 339.33 401.42 338.83 401.31
  Q 310.10 394.62 298.76 392.23
  Q 297.20 391.91 293.82 391.96
  Q 293.39 391.97 292.93 391.54
  Q 292.64 391.27 292.27 391.16
  Z"
/>
<path fill="#ffffff" d="
  M 20.31 392.82
  Q 19.18 391.94 17.75 392.00
  Q 16.75 392.04 16.74 391.30
  C 18.70 390.54 20.28 391.47 21.84 391.47
  Q 47.88 391.57 73.86 391.43
  A 0.41 0.41 0.0 0 1 74.14 392.13
  L 63.71 402.16
  Q 63.37 402.49 62.90 402.39
  L 20.31 392.82
  Z"
/>
<path fill="#ffffff" d="
  M 356.15 452.48
  L 355.63 448.44
  L 355.68 394.80
  Q 355.68 393.53 356.57 394.44
  L 366.24 404.38
  Q 366.65 404.80 366.52 405.38
  Q 361.89 426.10 357.27 446.75
  Q 356.93 448.26 356.96 451.29
  Q 356.96 451.75 356.76 451.99
  Q 356.54 452.23 356.15 452.48
  Z"
/>
<path fill="#ffffff" d="
  M 80.18 453.25
  L 79.52 449.37
  Q 79.43 449.15 79.58 448.82
  Q 79.75 448.42 79.75 447.98
  L 79.75 395.76
  Q 79.75 394.58 80.57 395.42
  L 90.20 405.36
  Q 90.70 405.88 90.54 406.57
  Q 85.71 427.55 81.34 447.57
  Q 80.95 449.36 80.96 452.35
  Q 80.97 452.75 80.81 452.97
  Q 80.56 453.33 80.18 453.25
  Z"
/>
</svg>
