<?xml version="1.0" encoding="UTF-8" standalone="no"?>
<!DOCTYPE svg PUBLIC "-//W3C//DTD SVG 1.1//EN" "http://www.w3.org/Graphics/SVG/1.1/DTD/svg11.dtd">
<svg xmlns="http://www.w3.org/2000/svg" version="1.1" viewBox="0.00 0.00 512.00 512.00" width="512.00" height="512.00">
<path fill="#000000" d="
  M 360.33 0.00
  L 363.02 0.00
  Q 374.45 0.96 382.45 9.05
  Q 390.16 16.84 397.86 24.64
  C 409.25 36.16 409.05 53.74 397.63 65.16
  Q 302.39 160.35 207.10 255.72
  Q 206.74 256.09 207.10 256.46
  Q 302.21 351.70 397.41 446.84
  C 409.07 458.49 408.89 476.14 397.54 487.54
  Q 389.87 495.24 382.22 502.97
  Q 374.17 511.09 362.70 512.00
  L 360.00 512.00
  Q 348.86 511.05 341.03 503.22
  Q 230.55 392.74 120.07 282.26
  Q 111.74 273.94 110.01 271.25
  C 104.63 262.87 104.22 251.30 109.08 242.57
  Q 111.06 238.99 118.09 231.96
  Q 229.36 120.67 340.65 9.40
  Q 349.13 0.92 360.33 0.00
  Z"
/>
</svg>
