<?xml version="1.0" encoding="UTF-8" standalone="no"?>
<!DOCTYPE svg PUBLIC "-//W3C//DTD SVG 1.1//EN" "http://www.w3.org/Graphics/SVG/1.1/DTD/svg11.dtd">
<svg xmlns="http://www.w3.org/2000/svg" version="1.1" viewBox="0.00 0.00 600.00 600.00" width="600.00" height="600.00">
<path fill="#5f6368" d="
  M 319.54 376.21
  Q 312.57 368.93 305.16 360.88
  A 0.94 0.94 0.0 0 0 303.79 360.87
  Q 216.38 452.22 128.66 543.81
  Q 119.68 553.19 115.20 555.92
  C 100.36 565.00 81.40 562.72 68.71 550.90
  C 51.35 534.72 53.22 510.49 69.00 494.00
  Q 159.60 399.35 250.33 304.58
  A 0.62 0.62 0.0 0 0 250.33 303.73
  Q 161.26 210.72 72.15 117.59
  Q 63.57 108.63 60.87 103.65
  C 53.05 89.25 55.82 70.03 67.61 58.29
  C 80.39 45.55 100.04 43.14 115.42 52.68
  Q 120.27 55.68 128.14 63.91
  Q 216.04 155.86 304.07 247.69
  Q 304.43 248.07 304.79 247.69
  Q 392.89 155.64 480.91 63.71
  Q 489.03 55.23 493.88 52.27
  C 511.47 41.52 534.77 47.00 546.12 64.82
  C 555.80 80.03 554.18 99.09 541.68 112.18
  Q 450.13 208.01 358.45 303.81
  A 0.53 0.52 45.4 0 0 358.45 304.54
  Q 448.24 398.31 538.11 492.21
  Q 545.19 499.61 547.57 503.92
  C 556.27 519.74 552.84 538.88 539.93 551.18
  C 527.25 563.27 506.09 564.96 491.63 554.71
  Q 488.47 552.46 477.30 540.82
  Q 398.38 458.55 319.54 376.21
  Z"
/>
</svg>
